<svg width="371" height="657" viewBox="0 0 371 657" fill="none" xmlns="http://www.w3.org/2000/svg"><g filter="url(#filter0_d_2082_713)"><path d="M241.707 300.265c4.174-1.03 8.578-1.019 12.968-.133 4.39.886 8.714 2.625 12.83 5.09s7.958 5.626 11.359 9.369a52.526 52.526 0 0 1 8.595 12.841l62.06 131.277c2.361 4.989 3.857 10.101 4.537 15.083.68 4.981.558 9.886-.345 14.391-.907 4.532-2.594 8.69-5.023 12.197-2.447 3.535-5.645 6.416-9.551 8.359l-118.965 59.158c-5.018 2.495-10.378 3.68-15.782 3.669-5.443-.01-10.919-1.231-16.104-3.54-5.184-2.309-10.115-5.731-14.391-10.089-4.276-4.358-7.917-9.672-10.577-15.761L93.635 382.782c-2.525-5.775-3.785-11.578-3.907-17.114-.123-5.536.884-10.736 2.89-15.398 2.006-4.662 4.958-8.692 8.772-11.929 3.813-3.236 8.393-5.59 13.709-6.899l126.608-31.177Z" fill="url(#paint0_linear_2082_713)"/><path d="M201.271 571.429c-5.102-.439-10.178-1.924-14.958-4.343-4.804-2.432-9.299-5.803-13.223-9.999-3.929-4.2-7.272-9.215-9.764-14.912L93.635 382.782c-1.666-3.812-2.785-7.641-3.387-11.396-.6-3.747-.683-7.416-.294-10.928.392-3.498 1.253-6.83 2.55-9.921a32.7 32.7 0 0 1 5.122-8.417l-9.142 10.87a32.42 32.42 0 0 0-5.045 8.259 35.273 35.273 0 0 0-2.533 9.707c-.402 3.427-.331 7.007.234 10.659.571 3.66 1.645 7.388 3.263 11.098l67.39 154.919c2.408 5.532 5.652 10.396 9.476 14.472 3.819 4.064 8.2 7.331 12.888 9.68 4.669 2.339 9.625 3.767 14.622 4.178 4.963.407 9.948-.184 14.713-1.873l12.785-4.536c-4.855 1.723-9.94 2.316-15.01 1.881l.004-.005Z" fill="#B2B2B2"/><path d="M279.008 432.45a33.58 33.58 0 0 0 2.576 1.299 31.2 31.2 0 0 0 2.61 1.039c.874.305 1.748.558 2.628.77.88.212 1.75.379 2.626.499.271 1.942.486 3.879.634 5.813.148 1.934.239 3.864.264 5.785a87.361 87.361 0 0 1-.11 5.731 84.648 84.648 0 0 1-.485 5.656 147.944 147.944 0 0 1-.66 4.808c-.23 1.481-.468 2.844-.713 4.085a57.132 57.132 0 0 1-.763 3.356c-.26.997-.533 1.871-.813 2.623a22.612 22.612 0 0 1-1.431 3.313 16.488 16.488 0 0 1-1.795 2.704 13.086 13.086 0 0 1-2.16 2.089 12.091 12.091 0 0 1-2.535 1.477c-.663.259-1.382.471-2.161.639-.78.167-1.62.29-2.517.367-.896.077-1.853.104-2.871.091a39.182 39.182 0 0 1-3.228-.191 37.358 37.358 0 0 0-3.296-.168 28.75 28.75 0 0 0-3.045.145c-.97.1-1.905.253-2.792.462-.888.21-1.74.467-2.546.776a25.581 25.581 0 0 0-5.263 2.953 27.66 27.66 0 0 0-2.375 1.943 26.874 26.874 0 0 0-2.18 2.241 50.151 50.151 0 0 1-2.313 2.388 35.649 35.649 0 0 1-2.176 1.937 22.202 22.202 0 0 1-2.034 1.482c-.651.416-1.285.764-1.891 1.026-.044.02-.083.039-.127.054-.045.015-.084.035-.128.054l-.127.055c-.044.02-.083.034-.128.049-.898.354-1.85.58-2.851.678a13.758 13.758 0 0 1-3.165-.073c-1.108-.148-2.266-.428-3.477-.832a28.754 28.754 0 0 1-3.791-1.594 34.6 34.6 0 0 1-2.85-1.491 65.36 65.36 0 0 1-3.356-2.086 108.727 108.727 0 0 1-3.868-2.689 185.673 185.673 0 0 1-4.384-3.287 92.338 92.338 0 0 1-4.93-4.078 100.017 100.017 0 0 1-4.835-4.59 115.957 115.957 0 0 1-4.739-5.098 132.384 132.384 0 0 1-4.643-5.604 123.909 123.909 0 0 1-4.65-6.369 113.748 113.748 0 0 1-4.087-6.447 100.37 100.37 0 0 1-3.511-6.517 95.173 95.173 0 0 1-2.934-6.571 78.38 78.38 0 0 1-2.567-7.425 64.55 64.55 0 0 1-1.637-7.11 51.15 51.15 0 0 1-.699-6.791 44.74 44.74 0 0 1 .229-6.461c.157-1.643.411-3.244.762-4.798a34.26 34.26 0 0 1 1.344-4.509 32.397 32.397 0 0 1 1.896-4.161 30.511 30.511 0 0 1 2.422-3.763 27.9 27.9 0 0 1 2.85-3.269 26.631 26.631 0 0 1 6.904-4.887 27.082 27.082 0 0 1 3.95-1.567 17.802 17.802 0 0 1 2.551-.525 26.834 26.834 0 0 1 3.062-.223 48.304 48.304 0 0 1 3.568.068c1.274.069 2.624.191 4.067.36 1.432.166 2.728.299 3.887.4 1.16.101 2.179.17 3.061.202a25.75 25.75 0 0 0 2.237.006c.61-.032 1.083-.102 1.425-.199.253-.077.626-.274 1.114-.592a25.983 25.983 0 0 0 1.82-1.326 86.854 86.854 0 0 0 2.517-2.05c.954-.806 2.018-1.726 3.193-2.771.956-.832 1.9-1.591 2.831-2.271a34.372 34.372 0 0 1 2.738-1.827 25.695 25.695 0 0 1 2.647-1.386 20.242 20.242 0 0 1 2.553-.95c.139-.04.278-.08.417-.115l.413-.104c.14-.035.275-.065.41-.094.134-.029.275-.054.41-.083 2.575-.491 5.081-.704 7.524-.643 2.443.061 4.802.398 7.102 1.007 2.3.609 4.53 1.487 6.707 2.638 2.177 1.15 4.28 2.569 6.329 4.266-1.492 2.226-2.649 4.536-3.476 6.924a27.99 27.99 0 0 0-1.472 7.431c-.155 2.555.03 5.204.56 7.919s1.396 5.514 2.605 8.38a46.49 46.49 0 0 0 3.197 6.246 39.536 39.536 0 0 0 3.933 5.355 35.799 35.799 0 0 0 10.032 7.984l-.02.012Z" fill="#000"/><path d="M213.4 381.935c-.117.033-.239.071-.357.104-.117.033-.24.061-.362.094s-.246.056-.369.084c-.123.028-.246.051-.369.074a30.744 30.744 0 0 1-.637-1.294c-.103-.221-.202-.453-.306-.679-.104-.226-.199-.469-.294-.707a32.9 32.9 0 0 1-1.632-5.344 34.726 34.726 0 0 1-.737-5.595 35.088 35.088 0 0 1 .167-5.653c.21-1.872.568-3.722 1.082-5.521.249-.907.55-1.793.904-2.654a23.835 23.835 0 0 1 2.706-4.889 26.64 26.64 0 0 1 1.796-2.246 21.593 21.593 0 0 1 1.783-1.843 19.725 19.725 0 0 1 6.434-3.914c.113.225.227.451.336.681.11.231.219.457.323.688.104.232.208.458.307.69.1.232.194.464.288.692.707 1.74 1.27 3.49 1.687 5.245.417 1.755.69 3.53.818 5.304a33.382 33.382 0 0 1-.051 5.373 35.815 35.815 0 0 1-.922 5.453c-.521 2.032-1.167 3.917-1.946 5.631-.779 1.713-1.691 3.27-2.739 4.625-1.047 1.354-2.23 2.522-3.547 3.462a14.592 14.592 0 0 1-4.373 2.135l.01.004Z" fill="#000"/></g><g filter="url(#filter1_df_2082_713)"><path d="M329.94 70.55a9.464 9.464 0 0 1-3.596-.25 11.038 11.038 0 0 1-3.484-1.619 12.26 12.26 0 0 1-2.947-2.903l-23.657-32.74a10.955 10.955 0 0 1-1.331-2.42 9.465 9.465 0 0 1-.608-2.465 8.326 8.326 0 0 1 .084-2.377 7.576 7.576 0 0 1 .74-2.162l-.954 1.821-.199.382-.109.207-.025.049-.016.031-.075.143-.035.067h-.002c-.037.074-.079.153-.112.216a7.528 7.528 0 0 0-.731 2.123 8.237 8.237 0 0 0-.091 2.327c.08.797.273 1.606.582 2.407a10.55 10.55 0 0 0 1.288 2.358l22.915 31.838a11.788 11.788 0 0 0 2.86 2.818 10.68 10.68 0 0 0 3.393 1.563 9.23 9.23 0 0 0 3.512.229 8.113 8.113 0 0 0 3.232-1.149l2.665-1.658a8.201 8.201 0 0 1-3.299 1.165v-.001Z" fill="#B2B2B2"/><path d="M325.628 7.03c.892-.439 1.888-.653 2.924-.668 1.036-.014 2.1.168 3.152.525 1.053.356 2.078.885 3.032 1.567a12.198 12.198 0 0 1 2.58 2.49l20.538 26.737a12.069 12.069 0 0 1 1.774 3.2c.401 1.096.616 2.215.636 3.282.019 1.073-.156 2.1-.531 3.015a5.834 5.834 0 0 1-1.744 2.366l-23.952 19.275a8.085 8.085 0 0 1-3.385 1.608 9.18 9.18 0 0 1-3.815-.01 10.923 10.923 0 0 1-3.753-1.582 12.219 12.219 0 0 1-3.173-3.056l-23.655-32.742c-.857-1.186-1.43-2.44-1.732-3.691a8.545 8.545 0 0 1-.111-3.636 7.457 7.457 0 0 1 1.391-3.138c.701-.922 1.619-1.682 2.756-2.24L325.628 7.03Z" fill="url(#paint1_linear_2082_713)"/><g opacity=".8"><path d="M346.619 41.076a.343.343 0 0 1 .235-.05.389.389 0 0 1 .22.129.805.805 0 0 1 .166.31c.042.134.069.3.073.498.004.248-.05.831-.23 1.627-.18.795-.489 1.817-.994 2.93a16.124 16.124 0 0 1-2.203 3.545 16.502 16.502 0 0 1-3.901 3.448c-1.632 1.042-3.452 1.72-5.274 2.1-1.822.382-3.703.481-5.459.398a27.947 27.947 0 0 1-4.85-.67c-1.42-.325-2.61-.714-3.417-1.043a1.134 1.134 0 0 1-.37-.212.444.444 0 0 1-.146-.234.323.323 0 0 1 .03-.217.408.408 0 0 1 .158-.163.442.442 0 0 1 .138-.056.465.465 0 0 1 .157-.013c1.223.075 2.558.164 3.967.195 1.41.03 2.873.006 4.382-.148a23.36 23.36 0 0 0 4.555-.905 19.072 19.072 0 0 0 4.488-2.04 19.152 19.152 0 0 0 2.214-1.613 20.734 20.734 0 0 0 2.103-2.048 24.072 24.072 0 0 0 1.961-2.522 29.397 29.397 0 0 0 1.791-3.027.915.915 0 0 1 .098-.132.876.876 0 0 1 .053-.05.399.399 0 0 1 .055-.039v.002Z" fill="#F99500"/><path d="M348.068 37.443c.113.055.248.202.394.413.145.21.301.485.455.795a12.74 12.74 0 0 1 .798 2.056 8.85 8.85 0 0 1 .307 1.81c.014.257.014.488.004.686-.011.198-.03.363-.056.487-.01.048-.021.09-.034.129a.579.579 0 0 1-.093.18.246.246 0 0 1-.055.049.141.141 0 0 1-.1.022.185.185 0 0 1-.101-.058.472.472 0 0 1-.093-.14 1.244 1.244 0 0 1-.077-.223 26.807 26.807 0 0 0-.7-2.265 11.618 11.618 0 0 0-.573-1.351c-.201-.383-.404-.666-.596-.76a.698.698 0 0 0-.314-.063 1.36 1.36 0 0 0-.368.06 2.85 2.85 0 0 0-.403.157 4.853 4.853 0 0 0-.418.226 8.503 8.503 0 0 0-.435.281 12.34 12.34 0 0 0-.405.293c-.127.096-.247.189-.354.273l-.276.218c-.084.064-.158.121-.223.174l-.172.138-.131.104c-.038.029-.072.051-.1.07a.367.367 0 0 1-.065.031.147.147 0 0 1-.108.002.224.224 0 0 1-.054-.03c-.101-.087-.116-.249-.069-.454.047-.206.155-.453.304-.71.148-.259.334-.527.536-.773a4.608 4.608 0 0 1 1.024-.94 6.941 6.941 0 0 1 .447-.287c.196-.116.399-.225.601-.32.201-.094.399-.173.587-.232.188-.06.363-.097.518-.107a.787.787 0 0 1 .395.057l.003.002Z" fill="#F99500"/><path d="M330.263 32.654c.277.42.544.823.793 1.22.249.395.48.787.684 1.184.203.398.382.804.524 1.229.143.424.249.873.311 1.353.051.39.061.763.03 1.114-.031.351-.101.68-.211.978-.11.299-.261.569-.451.802-.19.233-.42.43-.688.583a2.45 2.45 0 0 1-1.138.331 2.675 2.675 0 0 1-1.164-.236 4.084 4.084 0 0 1-1.124-.755c-.36-.333-.7-.743-1.013-1.223-.616-.944-.917-1.798-.979-2.568a3.567 3.567 0 0 1 .453-2.067c.339-.612.836-1.147 1.422-1.625.586-.477 1.254-.888 1.938-1.252l.612.933h.001Z" fill="#F0F0F0"/><path d="M341.029 35.503c.12.063.232.137.332.219.1.082.186.174.254.271a.966.966 0 0 1 .145.309c.027.106.03.22.006.333a147.479 147.479 0 0 0-.44 2.198 231.155 231.155 0 0 0-.422 2.241.945.945 0 0 1-.138.29.755.755 0 0 1-.426.289.88.88 0 0 1-.235.021 15.02 15.02 0 0 1-1.262-.355 9.391 9.391 0 0 1-.947-.373c-.287-.131-.555-.27-.841-.423-.286-.154-.589-.321-.945-.51-.109.903-.251 1.683-.444 2.366a7.398 7.398 0 0 1-.758 1.807 6.253 6.253 0 0 1-1.187 1.431c-.479.435-1.055.842-1.738 1.25a6.887 6.887 0 0 1-2.571.92 6.399 6.399 0 0 1-2.735-.218c-.916-.276-1.831-.763-2.705-1.477-.875-.714-1.71-1.655-2.473-2.838a11.814 11.814 0 0 1-1.32-2.717 8.723 8.723 0 0 1-.448-2.563 7.46 7.46 0 0 1 .327-2.338 7.478 7.478 0 0 1 .995-2.047 9.908 9.908 0 0 1 1.336-1.558 18.886 18.886 0 0 1 1.641-1.395c.576-.44 1.163-.853 1.736-1.248.574-.395 1.125-.766 1.631-1.121l-.365-.555c-.168-.255-.337-.523-.516-.793-.179-.269-.366-.538-.567-.795a6.178 6.178 0 0 0-.65-.718 3.912 3.912 0 0 0-.764-.564 2.951 2.951 0 0 0-1.521-.376c-.252.005-.497.04-.73.097-.234.057-.454.14-.655.239a3.608 3.608 0 0 0-.973.69 2.848 2.848 0 0 0-.629.95 2.87 2.87 0 0 0-.194 1.178c.017.426.122.886.329 1.371.047.108.081.221.101.334.019.113.025.225.014.329a.767.767 0 0 1-.086.286.51.51 0 0 1-.2.203l-4.23 1.537a1.096 1.096 0 0 1-.653-.05.988.988 0 0 1-.316-.208 1.165 1.165 0 0 1-.247-.367c-.617-1.425-.869-2.725-.837-3.9a6.79 6.79 0 0 1 .847-3.13c.505-.92 1.196-1.704 2-2.377a12.223 12.223 0 0 1 4.222-2.262c.571-.17 1.175-.302 1.798-.38a9.318 9.318 0 0 1 1.897-.05c.637.051 1.269.173 1.883.386a7.533 7.533 0 0 1 2.038 1.045c.6.433 1.13.94 1.623 1.504.493.563.947 1.18 1.392 1.831.446.65.883 1.335 1.34 2.026l4.342 6.576c.328.497.654.9.979 1.236.325.335.651.605.976.834.326.229.654.416.985.591.331.175.664.336 1.004.511l-.005.007Zm-8.453 2.136a7.245 7.245 0 0 0-.312-1.354 8.68 8.68 0 0 0-.523-1.228 16.06 16.06 0 0 0-.682-1.185c-.248-.396-.516-.797-.791-1.218l-.616-.934c-.684.365-1.355.778-1.938 1.252-.584.474-1.085 1.015-1.423 1.625a3.607 3.607 0 0 0-.453 2.067c.061.768.364 1.623.979 2.569.312.48.654.89 1.014 1.222.36.332.738.587 1.124.756.386.168.776.248 1.164.235a2.434 2.434 0 0 0 1.137-.331c.268-.154.498-.35.688-.583.19-.233.34-.503.451-.801a3.67 3.67 0 0 0 .211-.979c.03-.351.02-.724-.029-1.114" fill="#2E2F36"/><path d="m340.887 41.071.001-.001h.001l-.001.002h-.001Z" fill="#7B7B7B"/></g></g><g filter="url(#filter2_df_2082_713)"><path d="M167.631 96.645c2.427.656 4.776 1.697 6.95 3.018a30.087 30.087 0 0 1 5.909 4.703c1.734 1.782 3.202 3.75 4.301 5.797 1.099 2.046 1.833 4.19 2.088 6.308l8.054 66.636c.299 2.471.056 4.718-.643 6.669a11.29 11.29 0 0 1-3.404 4.906c-1.547 1.29-3.471 2.194-5.682 2.634-2.211.44-4.727.415-7.427-.163l-82.484-17.667c-2.972-.637-5.816-1.784-8.408-3.309a29.845 29.845 0 0 1-6.896-5.588c-1.961-2.154-3.538-4.54-4.62-7.041-1.082-2.5-1.661-5.085-1.636-7.652l.65-68.918c.02-2.18.593-4.098 1.609-5.703 1.015-1.605 2.455-2.881 4.229-3.802 1.773-.921 3.854-1.475 6.165-1.623 2.311-.149 4.824.11 7.467.826l73.778 19.969Z" fill="url(#paint2_linear_2082_713)"/><path d="M191.981 193.634c-.131.144-.269.283-.406.42-.031.03-.064.063-.097.093-.139.133-.28.265-.426.391l-.055.046c-.134.116-.272.227-.411.335-.034.027-.066.053-.1.077-.154.117-.31.23-.471.339-.029.022-.06.04-.089.06-.156.103-.314.205-.475.302l-.072.044a12.179 12.179 0 0 1-1.223.633l-.044.019a15.582 15.582 0 0 1-.678.279c-.197.075-.397.145-.6.212-.04.013-.08.024-.12.038a17.187 17.187 0 0 1-.655.191c-.213.056-.43.106-.648.154-.048.01-.097.019-.144.03-.22.045-.443.086-.667.121l-.08.01c-.212.033-.424.06-.641.084l-.131.014c-.23.024-.463.041-.698.056l-.146.008a20.19 20.19 0 0 1-.701.022h-.045c-.247.001-.496-.002-.745-.011l-.162-.005c-.248-.011-.5-.025-.753-.045-.037-.002-.076-.007-.113-.011a22.548 22.548 0 0 1-.71-.075c-.045-.008-.088-.011-.133-.016a18.395 18.395 0 0 1-.948-.145c-.27-.047-.542-.098-.816-.157L95.294 179.48a30.8 30.8 0 0 1-.79-.183 14.154 14.154 0 0 1-.628-.163c-.124-.035-.245-.067-.368-.103l-.233-.068c-.121-.036-.24-.072-.36-.11l-.23-.072-.367-.12c-.071-.024-.145-.048-.216-.074-.133-.046-.266-.094-.397-.141-.06-.022-.118-.042-.178-.066a20.722 20.722 0 0 1-.556-.213c-.006-.001-.01-.004-.015-.007a21.39 21.39 0 0 1-.57-.234l-.162-.07c-.133-.058-.267-.114-.398-.174a18.624 18.624 0 0 1-.205-.094 18.043 18.043 0 0 1-.352-.163c-.072-.034-.144-.068-.215-.104a24.437 24.437 0 0 1-.338-.165c-.073-.037-.145-.072-.216-.11a24.338 24.338 0 0 1-.9-.478l-.178-.099c-.158-.088-.316-.18-.471-.272-.018-.01-.038-.022-.057-.031l-.018-.011a32.964 32.964 0 0 1-.869-.532c-.04-.027-.08-.052-.122-.078-.217-.14-.427-.284-.64-.427-.093-.064-.188-.125-.279-.188a27.383 27.383 0 0 1-.875-.634c-.048-.035-.095-.075-.143-.111a27.292 27.292 0 0 1-.707-.552c-.1-.08-.197-.166-.296-.248-.176-.147-.353-.294-.526-.444-.111-.096-.218-.196-.327-.291-.158-.142-.315-.282-.468-.425-.112-.104-.222-.21-.331-.316-.146-.142-.293-.282-.434-.425-.11-.109-.216-.221-.324-.332a29.932 29.932 0 0 1-1.104-1.214 28.67 28.67 0 0 1-1.61-2.067 28.114 28.114 0 0 1-.584-.865 23.84 23.84 0 0 1-.287-.458c-.086-.14-.172-.28-.254-.421a18.32 18.32 0 0 1-.268-.469 18.5 18.5 0 0 1-.48-.905 30.424 30.424 0 0 1-.213-.428c-.079-.163-.151-.324-.225-.488-.074-.166-.152-.333-.222-.5-.024-.057-.048-.113-.07-.171l-.09-.22c-.031-.081-.064-.162-.094-.243l-.085-.221c-.03-.081-.058-.162-.089-.243l-.078-.222a8.042 8.042 0 0 1-.081-.243l-.074-.225-.075-.24-.07-.229-.067-.241-.064-.229-.061-.24-.058-.231a31.056 31.056 0 0 1-.107-.472l-.048-.244-.046-.229c-.016-.082-.028-.164-.042-.246a11.433 11.433 0 0 1-.107-.7c-.012-.085-.022-.171-.031-.256l-.026-.218-.024-.265-.019-.209a13.398 13.398 0 0 1-.017-.28l-.012-.193c-.005-.103-.007-.207-.01-.309l-.005-.164a19.662 19.662 0 0 1-.003-.473l.648-68.903c.004-.494.038-.973.096-1.438.06-.465.148-.917.26-1.353a10.283 10.283 0 0 1 .97-2.436l-.457.818-.036.063-.254.453-.062.11-.262.47-.065.12-.11.197c-.034.062-.07.128-.104.184l-.028.051c-.029.051-.06.104-.09.16l-.296.53a.552.552 0 0 1-.028.05l-.316.568-.096.171c-.014.026-.031.057-.048.084l-.118.214c-.06.106-.12.213-.17.305-.101.18-.234.422-.336.602l-.058.104-.057.103c-.009.016-.02.032-.028.049l-.209.374-.15.27a10.24 10.24 0 0 0-.974 2.436c-.113.436-.201.886-.262 1.351-.061.465-.097.943-.102 1.435l-.923 68.668a11.871 11.871 0 0 0 .005.627c.003.106.005.21.01.314l.01.19.017.282.017.208.023.263.023.217c.01.086.018.169.03.254.01.074.021.147.03.223.013.084.023.165.037.249.011.076.025.15.036.226.014.082.026.163.043.246.013.076.028.15.044.227l.034.175.015.066c.015.076.032.153.05.23.018.08.034.161.053.24.017.077.037.152.056.228l.06.24c.018.077.04.152.061.227.023.08.043.159.068.239.021.075.044.151.068.226l.073.24c.023.076.047.149.072.223.027.081.053.161.082.241l.076.222.087.242.083.221c.03.081.061.16.093.241.03.073.057.147.089.22.014.036.028.072.044.107.008.021.019.041.027.062.027.065.052.129.08.193.043.101.091.201.136.302.073.161.145.323.222.485.068.143.138.282.208.423.079.159.16.318.243.477.074.142.152.281.23.421.085.156.173.312.264.467l.25.418c.056.089.106.181.163.27.039.063.082.124.122.186.088.138.179.275.271.412.1.15.201.299.305.447.095.136.192.269.289.405a25.499 25.499 0 0 0 .977 1.259c.106.129.214.256.322.384l.159.19c.07.081.144.159.215.239.06.068.116.137.177.203l.131.139a71.413 71.413 0 0 0 .724.76c.041.041.08.085.123.126.1.1.205.197.308.296.108.106.216.209.325.313.151.143.307.282.463.422.107.095.212.192.321.288.023.02.045.042.068.061.147.128.301.254.451.378.098.082.195.166.295.246.23.186.466.368.702.547.048.036.093.073.14.109a29.744 29.744 0 0 0 .865.626c.092.063.187.124.278.187.184.124.365.25.552.371l.08.051c.04.027.082.051.121.076.284.18.57.357.86.527.004.001.01.006.013.008 0 0 .004.001.005.003l.058.034c.154.089.308.178.464.266.06.034.119.065.179.097.116.065.233.128.351.192l.068.037.137.07c.111.059.223.117.334.173l.213.107c.112.057.224.111.336.164l.212.101a17.846 17.846 0 0 0 .552.252c.131.058.263.116.394.171l.134.058.028.011c.187.079.375.156.563.229.006.001.012.004.015.006.183.072.366.14.55.209.06.021.12.041.178.063.13.048.26.093.392.139a23.823 23.823 0 0 0 .578.191c.033.011.067.023.101.033l.127.039c.119.035.236.073.355.106.078.023.154.046.231.066l.365.101c.074.02.148.04.223.058.133.034.264.068.398.1a20.22 20.22 0 0 0 .782.179l81.806 17.232a22.478 22.478 0 0 0 1.748.293c.045.008.088.011.133.016.237.03.471.052.705.071a19.23 19.23 0 0 0 .86.053c.026 0 .051.004.075.004h.087c.243.007.487.011.725.009.006.001.01-.001.017-.002h.043c.235-.003.467-.013.697-.025l.144-.008c.235-.015.467-.034.695-.059l.131-.014c.215-.024.428-.053.638-.086l.059-.008c.006-.001.014-.002.02-.005.225-.036.446-.077.664-.123l.144-.03c.208-.046.414-.093.616-.148l.027-.007.066-.019c.198-.053.394-.112.587-.174.04-.014.08-.025.119-.038.202-.067.402-.137.597-.213l.049-.016.072-.03c.187-.074.372-.151.555-.233l.044-.019a12.158 12.158 0 0 0 1.18-.616c.011-.008.024-.014.036-.022l.072-.044a10.878 10.878 0 0 0 .533-.341c.011-.006.02-.014.029-.021.159-.109.317-.223.469-.341l.041-.029c.021-.017.039-.034.06-.048.139-.109.276-.222.41-.335l.042-.035a13.179 13.179 0 0 0 .439-.402c.014-.014.031-.027.047-.042l.05-.052c.14-.136.276-.275.407-.419 1.558-1.705 3.118-3.41 4.676-5.117l.005.003Z" fill="#B2B2B2"/><g opacity=".9" fill="#D00B0F"><path d="M155.873 142.243c.162 3.867.32 7.597.463 11.048.143 3.451.274 6.659.385 9.404.111 2.76.202 5.072.267 6.783.065 1.71.103 2.822.108 3.164l-15.628-37.578-.352-12.852-.311-12.504 13.85 3.872 1.218 28.66v.003ZM144.104 168.613c.912.265 1.876.552 2.864.855.989.303 1.998.62 3 .94 1.002.321 1.996.648 2.952.967.956.32 1.875.635 2.725.934.146.052.287.099.421.144.135.045.261.088.376.125l.316.098c.094.028.172.05.234.066-.064-.017-.144-.038-.24-.067l-.328-.101a16.171 16.171 0 0 1-.394-.13c-.14-.048-.289-.097-.44-.152a208.497 208.497 0 0 0-5.67-1.899 224.976 224.976 0 0 0-5.855-1.794 113.98 113.98 0 0 1-.852-.249l-.701-.208a39.91 39.91 0 0 1-.48-.146 1.606 1.606 0 0 1-.183-.063c-.004-.003-.067-.158-.191-.458-.124-.299-.306-.747-.545-1.334l-.889-2.18-1.219-2.989.002-.065c.468 1.151.883 2.166 1.241 3.039.357.873.656 1.611.899 2.201.244.59.425 1.038.549 1.34.123.301.187.453.191.455.003.005.068.026.184.063.115.037.278.085.479.146.201.062.438.131.701.208.263.078.551.162.852.249l.001.005Z"/><path d="m129.549 106.523.098.227c.852 2.045 1.706 4.096 2.564 6.152.858 2.056 1.725 4.132 2.59 6.208.869 2.082 1.74 4.172 2.616 6.267.875 2.095 1.758 4.211 2.643 6.325l1.369 3.272 15.666 37.67a1.322 1.322 0 0 1-.291-.01 3.165 3.165 0 0 1-.345-.068 4.777 4.777 0 0 1-.388-.114c-.137-.045-.277-.093-.422-.142-.85-.299-1.769-.614-2.725-.934a241.429 241.429 0 0 0-8.816-2.762c-.301-.087-.588-.172-.851-.249l-.702-.208c-.201-.06-.364-.11-.479-.147a1.574 1.574 0 0 1-.184-.062c-.004-.003-.067-.156-.191-.456-.124-.3-.308-.748-.548-1.339l-.9-2.201c-.357-.876-.772-1.888-1.241-3.04-.43-1.055-.908-2.223-1.429-3.505l-1.699-4.168-1.959-4.805-2.207-5.419c-.033-.082-.068-.165-.1-.247l-.102-.249c-.035-.085-.067-.167-.102-.249-.035-.083-.067-.167-.102-.251l-1.208-2.97-14.867-36.529 14.312 4.003ZM130.101 139.065l1.209 2.955.101.251c.035.085.067.167.102.25.035.082.067.166.102.249.035.082.068.164.1.246l-.427-1.004-1.205-2.969.164 12.864c.04 3.096.071 5.474.091 7.298.021 1.831.029 3.098.028 3.973 0 .874-.012 1.356-.034 1.615-.022.259-.055.295-.097.285a271.1 271.1 0 0 0-3.59-.726 356.956 356.956 0 0 0-3.601-.687l-.995-.173a89.365 89.365 0 0 0-1.248-.209c-.441-.072-.896-.149-1.341-.221-.446-.073-.881-.141-1.277-.204a108.54 108.54 0 0 1-1.038-.167c-.325-.054-.623-.102-.881-.148l-.648-.113a7.398 7.398 0 0 1-.339-.067c-.015-.009-.026-.911-.035-2.528-.009-1.618-.016-3.932-.02-6.775-.005-2.843-.008-6.169-.007-9.843 0-3.647 0-7.618.004-11.742l.018-28.955 14.865 36.543-.001.002Z"/></g></g><defs><linearGradient id="paint0_linear_2082_713" x1="323.984" y1="387.394" x2="127.874" y2="464.042" gradientUnits="userSpaceOnUse"><stop stop-color="#fff"/><stop offset="1" stop-color="#F0F0F0"/></linearGradient><linearGradient id="paint1_linear_2082_713" x1="348.545" y1="22.755" x2="307.967" y2="49.705" gradientUnits="userSpaceOnUse"><stop stop-color="#fff"/><stop offset="1" stop-color="#F0F0F0"/></linearGradient><linearGradient id="paint2_linear_2082_713" x1="194.103" y1="132.755" x2="82.487" y2="149.611" gradientUnits="userSpaceOnUse"><stop stop-color="#fff"/><stop offset="1" stop-color="#F0F0F0"/></linearGradient><filter id="filter0_d_2082_713" x="2.98" y="287.919" width="372.143" height="380.081" filterUnits="userSpaceOnUse" color-interpolation-filters="sRGB"><feFlood flood-opacity="0" result="BackgroundImageFix"/><feColorMatrix in="SourceAlpha" values="0 0 0 0 0 0 0 0 0 0 0 0 0 0 0 0 0 0 127 0" result="hardAlpha"/><feOffset dx="-30" dy="40"/><feGaussianBlur stdDeviation="20"/><feComposite in2="hardAlpha" operator="out"/><feColorMatrix values="0 0 0 0 0 0 0 0 0 0 0 0 0 0 0 0 0 0 0.1 0"/><feBlend in2="BackgroundImageFix" result="effect1_dropShadow_2082_713"/><feBlend in="SourceGraphic" in2="effect1_dropShadow_2082_713" result="shape"/></filter><filter id="filter1_df_2082_713" x="222.749" y="3.362" width="147.516" height="148.906" filterUnits="userSpaceOnUse" color-interpolation-filters="sRGB"><feFlood flood-opacity="0" result="BackgroundImageFix"/><feColorMatrix in="SourceAlpha" values="0 0 0 0 0 0 0 0 0 0 0 0 0 0 0 0 0 0 127 0" result="hardAlpha"/><feOffset dx="-30" dy="40"/><feGaussianBlur stdDeviation="20"/><feComposite in2="hardAlpha" operator="out"/><feColorMatrix values="0 0 0 0 0 0 0 0 0 0 0 0 0 0 0 0 0 0 0.1 0"/><feBlend in2="BackgroundImageFix" result="effect1_dropShadow_2082_713"/><feBlend in="SourceGraphic" in2="effect1_dropShadow_2082_713" result="shape"/><feGaussianBlur stdDeviation="1.5" result="effect2_foregroundBlur_2082_713"/></filter><filter id="filter2_df_2082_713" x=".068" y="73.809" width="204.99" height="208.943" filterUnits="userSpaceOnUse" color-interpolation-filters="sRGB"><feFlood flood-opacity="0" result="BackgroundImageFix"/><feColorMatrix in="SourceAlpha" values="0 0 0 0 0 0 0 0 0 0 0 0 0 0 0 0 0 0 127 0" result="hardAlpha"/><feOffset dx="-30" dy="40"/><feGaussianBlur stdDeviation="20"/><feComposite in2="hardAlpha" operator="out"/><feColorMatrix values="0 0 0 0 0 0 0 0 0 0 0 0 0 0 0 0 0 0 0.1 0"/><feBlend in2="BackgroundImageFix" result="effect1_dropShadow_2082_713"/><feBlend in="SourceGraphic" in2="effect1_dropShadow_2082_713" result="shape"/><feGaussianBlur stdDeviation="1" result="effect2_foregroundBlur_2082_713"/></filter></defs></svg>