<svg width="291" height="487" viewBox="0 0 291 487" fill="none" xmlns="http://www.w3.org/2000/svg"><g filter="url(#filter0_df_2082_714)"><path d="M67.685 25.297c.95.47 1.753 1.045 2.392 1.688s1.12 1.357 1.414 2.094c.296.74.407 1.506.317 2.252a4.323 4.323 0 0 1-.913 2.15L54.433 54.498c-.611.78-1.407 1.413-2.321 1.886a9.322 9.322 0 0 1-3.047.936c-1.09.145-2.237.12-3.365-.086a10.627 10.627 0 0 1-3.263-1.16L13.87 40.166c-.938-.522-1.689-1.162-2.242-1.872-.552-.71-.904-1.479-1.055-2.27a4.659 4.659 0 0 1 .165-2.374c.26-.775.727-1.522 1.409-2.196l18.437-18.248c.588-.582 1.322-1.046 2.145-1.387a9.428 9.428 0 0 1 2.679-.651c.946-.093 1.926-.06 2.89.105.963.164 1.912.46 2.79.892l26.598 13.131Z" fill="url(#paint0_linear_2082_714)"/><path d="M52.929 58.444a5.691 5.691 0 0 0 .133-.11l.016-.014.09-.078.055-.05c.032-.028.063-.057.094-.087l.041-.039.006-.005c.04-.038.08-.077.118-.117l.02-.018c.045-.046.09-.093.133-.14l.003-.003.091-.1.015-.018.03-.034.044-.05.037-.045.031-.038.02-.023.084-.106 16.288-20.961.033-.043a4.813 4.813 0 0 0 .064-.086l.03-.044a.564.564 0 0 0 .02-.028l.02-.028.039-.057a5.424 5.424 0 0 0 .086-.134l.006-.008.009-.016.042-.07.066-.115.007-.013.008-.015.04-.075.052-.104a.263.263 0 0 0 .011-.025l.005-.01.005-.012.028-.058.045-.105.016-.04.008-.02.015-.039.037-.099c.01-.023.017-.047.025-.072a.076.076 0 0 0 .004-.014l.005-.013.031-.1.025-.086a.446.446 0 0 1 .006-.02l.004-.015.014-.051a4.36 4.36 0 0 0 .021-.087l.02-.086.624-2.932c-.016.075-.035.15-.055.225l-.004.014a3.65 3.65 0 0 1-.067.22l-.005.014c-.024.07-.05.14-.077.21l-.009.02a4.487 4.487 0 0 1-.088.203l-.01.022a4.071 4.071 0 0 1-.104.204l-.008.015a5.24 5.24 0 0 1-.116.2l-.015.024a4.435 4.435 0 0 1-.294.42L54.435 54.494l-.105.13-.03.037-.083.096-.03.035-.11.122-.135.14a5.878 5.878 0 0 1-.139.135l-.048.045c-.031.03-.063.06-.095.088l-.057.05-.09.077-.062.051c-.03.025-.06.05-.09.073l-.064.051a70.335 70.335 0 0 1-.158.12 6.58 6.58 0 0 1-.092.066l-.07.05a4.922 4.922 0 0 1-.162.11l-.11.07-.065.042c-.041.026-.083.05-.126.076l-.052.031a9.969 9.969 0 0 1-.366.201c-.025.014-.05.026-.076.039l-.102.05-.08.038a5.605 5.605 0 0 1-.102.048l-.082.037-.103.045-.083.035c-.035.015-.07.03-.105.043l-.084.033-.106.04-.085.032a4.244 4.244 0 0 1-.107.037l-.086.03-.109.036-.087.028a7.09 7.09 0 0 1-.11.033l-.085.025-.143.04-.07.02a7.14 7.14 0 0 1-.189.047l-.025.006-.217.05-.062.012a8.736 8.736 0 0 1-.261.05l-.085.016a4.257 4.257 0 0 1-.195.031l-.128.018-.066.01a9.907 9.907 0 0 1-.397.044l-.024.003c-.127.012-.255.02-.383.028l-.034.002c-.13.007-.262.011-.394.013h-.024c-.134.002-.267.001-.4-.002h-.01c-.136-.004-.271-.01-.406-.019l-.025-.001c-.133-.009-.267-.02-.4-.033l-.026-.003c-.134-.013-.267-.03-.4-.049l-.025-.003c-.133-.02-.266-.04-.4-.065l-.038-.007a8.528 8.528 0 0 1-.163-.031l-.028-.006a8.184 8.184 0 0 1-.185-.039l-.048-.011-.151-.036-.042-.01a12.271 12.271 0 0 1-.228-.058l-.146-.04c-.017-.006-.035-.01-.052-.015a7.635 7.635 0 0 1-.184-.056l-.022-.007-.162-.051-.058-.02-.138-.047a2.287 2.287 0 0 0-.05-.017l-.184-.067-.035-.014-.15-.058a2.064 2.064 0 0 1-.063-.026l-.124-.05c-.022-.01-.043-.02-.065-.028l-.117-.051-.075-.034-.128-.06-.06-.027a8.432 8.432 0 0 1-.187-.091l-.024-.012a8.228 8.228 0 0 1-.366-.194L13.873 40.165a7.227 7.227 0 0 1-.176-.101l-.049-.029-.136-.083-.04-.024a6.6 6.6 0 0 1-.162-.105l-.065-.044a4.327 4.327 0 0 1-.108-.074l-.069-.05-.098-.071-.07-.053-.094-.071-.068-.054-.09-.073-.066-.056a5.647 5.647 0 0 1-.15-.13l-.085-.078-.059-.055-.086-.084-.052-.05-.096-.1-.037-.038a5.515 5.515 0 0 1-.128-.14l-.024-.028a4.984 4.984 0 0 1-.097-.112l-.043-.052-.074-.091-.045-.059a5.071 5.071 0 0 1-.066-.087l-.045-.062-.06-.085-.044-.064-.057-.085-.041-.065-.054-.087a4.583 4.583 0 0 1-.09-.154l-.035-.063-.05-.094-.031-.06-.052-.107-.023-.048a5.827 5.827 0 0 1-.07-.155l-.008-.022a3.56 3.56 0 0 1-.055-.136l-.02-.055a4.272 4.272 0 0 1-.038-.103l-.022-.063-.027-.086a5.158 5.158 0 0 1-.076-.265l-.011-.046a5.18 5.18 0 0 1-.057-.266l-.008-.043a4.365 4.365 0 0 1-.066-.593l.14 2.983c.005.096.013.192.024.287l.003.031a4.335 4.335 0 0 0 .047.316c.017.088.035.176.057.265l.01.045c.023.089.048.176.075.264l.004.015.024.07.015.048.006.016.037.103.02.055.054.135.01.021a3.789 3.789 0 0 0 .09.203c.018.035.034.071.053.107l.03.06a12.542 12.542 0 0 0 .084.157l.05.089.039.064.03.05.022.036.041.065.056.085.024.036.019.027.06.086.044.061c.021.03.043.058.065.087l.045.058.073.091.042.052.095.112.025.029.126.139.037.038c.027.03.055.059.083.087l.011.012.051.05.085.084.059.054a5.1 5.1 0 0 0 .084.078l.022.02.04.035.086.075.065.054.088.073.067.054.092.071.069.052c.032.025.064.048.097.072l.068.05.107.073.064.044.013.01.131.086.017.01.038.024.08.049.054.033.048.03.034.02.14.08L42.154 58.95l.053.03.054.03.053.028.026.014.007.004.021.011c.048.026.096.05.144.074l.026.014c.058.03.115.058.174.086l.008.004.062.03.104.048.02.01.075.032.08.037.036.015.063.027.058.024.065.026.062.025.03.012.118.046c.011.005.023.01.035.013a12.332 12.332 0 0 0 .163.06l.018.007.05.018.08.028.056.018.057.02.036.012.125.04.022.006h.002l.15.045.03.009.05.014c.02.006.042.013.064.018l.08.022.044.012.02.005.144.037.017.004a.527.527 0 0 0 .04.009l.087.021.064.014.047.011.032.007.142.03.01.002a3.734 3.734 0 0 0 .133.026l.054.011.027.005.011.002c.017.002.034.006.05.009l.143.024.142.022.06.008.023.004.06.008.142.019.145.017.048.005.026.002.071.007c.049.005.097.01.145.013l.145.011.033.003h.024l.093.007.15.007.15.005a.188.188 0 0 0 .017 0l.132.003h.157l.106-.001H47.497l.157-.005.156-.006.048-.003c.011 0 .022 0 .034-.002l.089-.004.169-.013.12-.01a.431.431 0 0 1 .023-.002c.009-.001.017-.001.025-.003a7.244 7.244 0 0 0 .355-.04l.012-.003h.005l.061-.01.109-.015.016-.003.079-.012.09-.015c.009 0 .016-.003.024-.004l.083-.015.079-.014a8.353 8.353 0 0 0 .18-.036l.05-.01.01-.003c.073-.016.144-.031.215-.049h.003l.022-.006c.062-.015.124-.03.186-.047l.017-.004.051-.015.142-.04.03-.008.053-.017c.037-.01.073-.022.11-.034l.085-.027.107-.036.04-.014.045-.016.105-.038.085-.031.104-.04.05-.019.034-.014.102-.042.083-.035.1-.045c.02-.008.039-.016.057-.025l.025-.011.1-.048.08-.038.1-.05a2.313 2.313 0 0 0 .075-.037l.017-.01c.047-.024.093-.048.139-.074l.024-.013.002-.002c.06-.033.12-.067.179-.102l.009-.005.043-.026.124-.076.02-.012.043-.029.109-.07.03-.02c.013-.009.026-.019.04-.027.03-.02.06-.042.09-.064l.07-.049.09-.066.04-.029a.524.524 0 0 0 .027-.022c.03-.022.06-.045.088-.068l.065-.052.003-.002Z" fill="#B2B2B2"/><path opacity=".8" d="M48.154 24.924c.693.298 1.351.638 1.966 1.015.616.377 1.192.792 1.72 1.239.526.447 1.008.93 1.434 1.44.425.51.8 1.052 1.112 1.617.341.618.602 1.254.784 1.899.182.647.283 1.304.302 1.962a7.934 7.934 0 0 1-.19 1.975 8.425 8.425 0 0 1-.698 1.933l-6.367-2.836a3.995 3.995 0 0 0-.085-2.817 4.724 4.724 0 0 0-.472-.889 5.478 5.478 0 0 0-.543-.678 6.1 6.1 0 0 0-.662-.607 6.963 6.963 0 0 0-.767-.53 7.834 7.834 0 0 0-1.445-.672 9.049 9.049 0 0 0-1.399-.366 9.328 9.328 0 0 0-3.69.084c-.399.092-.783.21-1.148.352a7.337 7.337 0 0 0-1.036.498c-.323.189-.626.4-.9.63-.274.23-.523.481-.74.75-.216.268-.4.551-.547.844a4.217 4.217 0 0 0-.333.903 3.968 3.968 0 0 0 .006 1.896c.079.319.196.63.348.93.153.301.342.593.564.87.222.277.477.54.763.785a6.886 6.886 0 0 0 1.316.885 7.16 7.16 0 0 0 .382.187c.308.141.63.265.959.369a9.087 9.087 0 0 0 2.072.397c.356.026.716.033 1.076.019a9.151 9.151 0 0 0 1.281-.14c.417-.076.822-.18 1.209-.311.387-.131.757-.29 1.105-.472a6.6 6.6 0 0 0 .972-.62l6.407 2.883a11.766 11.766 0 0 1-1.781 1.518c-.656.457-1.375.867-2.14 1.22-.765.354-1.582.65-2.434.887-.855.236-1.745.41-2.661.516a18.78 18.78 0 0 1-5.049-.1 18.268 18.268 0 0 1-2.428-.548 16.732 16.732 0 0 1-2.277-.866l-.195-.092a9.865 9.865 0 0 1-.384-.193 14.344 14.344 0 0 1-2.292-1.47 12.123 12.123 0 0 1-1.696-1.616 10.299 10.299 0 0 1-1.255-1.812 8.849 8.849 0 0 1-.779-1.952 8.08 8.08 0 0 1-.27-2.004 7.923 7.923 0 0 1 .23-1.964c.159-.641.396-1.27.712-1.875a9.554 9.554 0 0 1 1.167-1.738c.464-.553.99-1.061 1.571-1.528.58-.465 1.216-.887 1.898-1.261a15.075 15.075 0 0 1 2.172-.973 16.89 16.89 0 0 1 2.393-.66 18.272 18.272 0 0 1 2.519-.32 18.793 18.793 0 0 1 5.048.396 17.639 17.639 0 0 1 2.796.855l.189.077.187.08.003-.001Z" fill="#0148DD"/></g><g filter="url(#filter1_df_2082_714)"><path d="M196.55 52.961c1.667-.627 3.295-.947 4.816-.986 1.521-.04 2.947.2 4.187.698 1.245.498 2.309 1.256 3.116 2.241.807.986 1.362 2.217 1.575 3.644l6.713 44.952c.248 1.669.106 3.393-.369 5.08-.475 1.686-1.287 3.346-2.366 4.865a18.396 18.396 0 0 1-3.98 4.064 17.707 17.707 0 0 1-5.176 2.682l-52.331 16.763c-1.719.55-3.365.731-4.868.586-1.504-.146-2.849-.61-3.99-1.35a7.907 7.907 0 0 1-2.709-2.979c-.647-1.228-1.021-2.679-1.06-4.311l-1.056-44.16c-.034-1.408.245-2.859.777-4.277.529-1.413 1.312-2.797 2.289-4.077a18.43 18.43 0 0 1 3.456-3.455c1.31-1 2.764-1.83 4.304-2.41l46.672-17.57Z" fill="url(#paint1_linear_2082_714)"/><path d="m220.045 109.987.013-.195.006-.098c0-.013 0-.024.002-.037l.007-.202.004-.127.001-.219v-.11c0-.094-.002-.188-.006-.282v-.046a9.077 9.077 0 0 0-.018-.327v-.008a8.563 8.563 0 0 0-.018-.23l-.003-.039-.008-.077-.011-.114-.012-.098-.01-.082-.006-.05-.033-.229-6.845-44.672-.014-.091-.015-.09c-.005-.03-.01-.06-.017-.09l-.017-.09-.013-.057-.011-.057c-.008-.038-.015-.077-.024-.115l-.055-.224-.01-.039-.003-.018c-.003-.01-.007-.019-.009-.029l-.037-.134a6.38 6.38 0 0 0-.066-.216l-.007-.024-.009-.028-.046-.137-.066-.186a1.443 1.443 0 0 0-.018-.043c-.003-.005-.004-.011-.006-.016l-.009-.022-.039-.1-.076-.18a5.03 5.03 0 0 0-.031-.066l-.016-.036-.029-.063c-.025-.054-.052-.107-.078-.16-.019-.04-.04-.078-.06-.116l-.007-.014-.005-.007a11.408 11.408 0 0 0-.098-.177l-.075-.132a.297.297 0 0 1-.019-.031l-.013-.022-.047-.077a4.514 4.514 0 0 0-.081-.128l-.083-.125-2.862-4.2c.073.108.144.219.212.33l.013.022c.066.111.13.224.19.34l.012.023c.058.111.113.225.166.34l.017.035c.05.114.1.23.145.347l.015.038c.047.12.09.243.13.367l.009.028c.039.124.076.249.11.375l.013.047a6.832 6.832 0 0 1 .099.435c.028.138.054.278.075.42l6.713 44.953c.013.094.026.187.037.281l.011.082.022.214.008.078c.007.094.015.186.021.28.007.11.013.22.017.33v.048c.002.094.005.189.005.282v.112c0 .073 0 .146-.003.22 0 .043-.002.084-.005.127a6.806 6.806 0 0 1-.017.34l-.014.196-.013.14-.019.192-.016.143-.024.191-.021.144a3.73 3.73 0 0 1-.029.189 3.143 3.143 0 0 1-.024.14c-.012.074-.026.147-.04.222l-.024.126c-.016.082-.034.163-.052.246l-.021.101a21.513 21.513 0 0 1-.098.395 12.92 12.92 0 0 1-.079.293l-.041.139-.055.186-.046.143a9.687 9.687 0 0 1-.059.182l-.049.144-.063.181a8.459 8.459 0 0 0-.053.145c-.023.059-.045.119-.069.178a8.538 8.538 0 0 0-.056.144l-.072.177-.061.143c-.025.06-.051.118-.077.176-.022.047-.042.095-.063.142-.027.058-.055.117-.081.176l-.067.14-.086.176-.067.134-.116.224-.057.109c-.052.097-.105.193-.159.289l-.022.038a27.46 27.46 0 0 1-.189.327l-.057.092c-.047.077-.093.153-.141.229l-.098.153-.078.123c-.037.055-.073.111-.111.165l-.076.113c-.04.061-.083.12-.125.18l-.064.092c-.131.183-.266.366-.403.544l-.026.033c-.131.171-.268.339-.405.506l-.037.044c-.143.17-.288.338-.438.504l-.028.03a17.976 17.976 0 0 1-.965.985l-.03.03a19.821 19.821 0 0 1-1.055.923l-.033.027c-.177.143-.356.282-.539.418l-.053.04-.226.165-.038.028c-.086.062-.173.123-.262.184l-.069.046a8.27 8.27 0 0 1-.218.146l-.06.04a24.465 24.465 0 0 1-.552.347l-.077.047c-.093.055-.186.11-.279.163l-.035.019-.25.14-.091.05-.216.115-.078.041c-.097.051-.196.1-.294.15l-.057.028-.244.117a2.375 2.375 0 0 1-.103.048c-.069.032-.137.064-.206.094l-.108.048-.197.085-.129.054c-.072.031-.145.06-.218.089l-.105.043c-.109.043-.216.083-.326.124l-.042.015c-.099.037-.2.073-.302.107l-.013.005c-.114.04-.229.078-.344.114l-52.331 16.763c-.11.036-.219.068-.327.1l-.091.027c-.086.025-.172.048-.259.072l-.075.02a9.692 9.692 0 0 1-.316.078c-.043.011-.086.019-.127.03a9.226 9.226 0 0 1-.355.074c-.067.013-.134.027-.201.038a6.246 6.246 0 0 1-.145.025c-.065.012-.13.022-.195.032l-.145.022-.192.025-.144.018-.192.02a3.45 3.45 0 0 1-.14.012 4.215 4.215 0 0 1-.194.014c-.045.003-.089.007-.135.009a6.754 6.754 0 0 1-.201.009l-.122.005c-.077.003-.154.003-.231.004h-.09c-.106 0-.212-.001-.317-.005-.022 0-.042-.003-.063-.003a6.712 6.712 0 0 1-.249-.011l-.112-.008c-.066-.005-.132-.008-.198-.015l-.123-.012c-.061-.007-.122-.013-.182-.021l-.128-.016-.174-.025a34.64 34.64 0 0 1-.128-.021c-.057-.01-.113-.019-.169-.03l-.126-.024a4.545 4.545 0 0 1-.168-.036 8.248 8.248 0 0 1-.292-.068l-.119-.03c-.058-.015-.115-.032-.172-.048a5.331 5.331 0 0 1-.299-.093 1.391 1.391 0 0 1-.085-.027c-.091-.031-.18-.064-.27-.097-.013-.005-.024-.01-.037-.013-.077-.03-.154-.06-.228-.092-.031-.012-.061-.026-.091-.039-.057-.024-.114-.048-.169-.073-.035-.015-.069-.032-.103-.048-.045-.022-.091-.043-.136-.066a8.037 8.037 0 0 1-.411-.216l-.069-.04a8.177 8.177 0 0 1-.391-.24l-.061-.042a6.81 6.81 0 0 1-.379-.269l-.042-.033a6.995 6.995 0 0 1-.379-.309l3.805 3.313a7.908 7.908 0 0 0 .797.609l.062.042c.127.083.256.163.389.24.022.013.045.027.068.039.134.076.269.148.408.217.008.003.015.008.023.012l.112.053a1.35 1.35 0 0 0 .102.048c.056.026.113.05.17.075.03.013.059.027.089.039a7.21 7.21 0 0 0 .533.201l.084.028c.063.02.126.042.191.061l.107.032.172.049.117.03.167.042.122.028.095.021.071.014.126.026.168.03.072.013a8.968 8.968 0 0 0 .229.034l.126.017c.06.008.12.014.181.021l.122.012c.065.007.13.012.196.017l.111.009c.082.005.165.009.247.012l.064.003c.104.004.208.006.315.006h.089l.202-.001h.027c.04 0 .081-.003.121-.004l.2-.007.134-.009.19-.014.051-.004.088-.009.191-.019.142-.016.19-.024c.048-.007.096-.013.143-.021l.193-.03.143-.024c.067-.011.133-.024.2-.037l.139-.026c.07-.014.141-.031.213-.046l.128-.028.025-.005c.085-.02.17-.04.256-.062a.192.192 0 0 0 .032-.009l.073-.018.152-.041.103-.029c.031-.009.061-.018.091-.025l.065-.018c.086-.025.173-.052.259-.08l51.781-16.391.099-.031.097-.032c.033-.011.066-.021.098-.033l.045-.015.014-.005.038-.013a7.73 7.73 0 0 0 .255-.091l.047-.016h.002l.303-.114c.005-.003.011-.004.016-.006l.106-.042c.059-.024.12-.047.179-.072l.035-.015.127-.054.136-.057.06-.026.106-.047.096-.043.107-.049.102-.048.048-.023c.065-.03.128-.062.192-.092l.057-.028c.003 0 .005-.003.008-.004l.254-.128.029-.015c.026-.014.051-.028.078-.041l.128-.067.086-.046.089-.048.057-.031a7.277 7.277 0 0 0 .225-.128l.004-.002c.075-.043.151-.087.227-.133l.044-.026.075-.046.096-.058.12-.075.064-.04.029-.018c.071-.044.142-.09.211-.135.009-.005.017-.012.024-.017a.735.735 0 0 0 .058-.039l.127-.084.091-.062.067-.045c.015-.01.03-.02.045-.032l.201-.14.012-.009a.39.39 0 0 1 .036-.025c.05-.036.101-.072.15-.109l.076-.056.037-.026a.174.174 0 0 0 .015-.013c.022-.018.046-.034.069-.052l.194-.148c.064-.049.127-.1.19-.15l.079-.064.031-.025.078-.063c.064-.052.126-.103.187-.155l.189-.16.06-.053a6.516 6.516 0 0 1 .124-.109c.062-.054.123-.11.183-.165l.181-.167.04-.037.029-.028.115-.109c.061-.058.122-.118.181-.177.059-.06.12-.119.178-.18l.009-.009.011-.011.156-.161a8.39 8.39 0 0 0 .182-.195l.119-.131.028-.03c.01-.012.022-.023.032-.036l.175-.198.174-.202.051-.062.037-.044.096-.115a12.533 12.533 0 0 0 .304-.385.712.712 0 0 1 .026-.031l.025-.033a15.614 15.614 0 0 0 .359-.488l.011-.017.005-.007.059-.086.107-.154.015-.022.075-.113a9.84 9.84 0 0 0 .088-.129l.021-.034.077-.12.073-.114.024-.038.139-.226.046-.075.01-.017c.063-.107.126-.213.187-.322l.002-.004.019-.034.157-.286.014-.025.042-.081c.039-.074.077-.148.113-.222l.024-.046.042-.086.085-.175.064-.138.08-.175c.01-.022.021-.044.03-.067l.032-.073.074-.173.059-.143a12.83 12.83 0 0 0 .105-.258l.023-.06c.023-.058.044-.117.066-.176a4.68 4.68 0 0 1 .053-.142l.062-.178c.011-.032.024-.065.034-.098l.014-.045.058-.179.045-.143.055-.182.032-.112.008-.026.009-.032a8.18 8.18 0 0 0 .068-.258l.013-.045v-.005a11.156 11.156 0 0 0 .084-.358l.018-.084a10.393 10.393 0 0 0 .058-.281l.015-.087c.014-.072.027-.146.039-.218.004-.02.008-.039.01-.059.006-.027.008-.055.013-.081l.028-.187.02-.145.023-.187.01-.083.005-.06.018-.189c.003-.047.009-.094.011-.141l.001-.005Z" fill="#B2B2B2"/><path d="M175.777 72.817c3.389-1.004 6.662-1.377 9.686-1.19 3.047.19 5.849.95 8.262 2.213 2.414 1.263 4.482 3.068 5.981 5.308 1.516 2.264 2.474 4.984 2.717 8.089.242 3.105-.264 6.358-1.403 9.495-1.146 3.16-2.926 6.223-5.205 9.015a36.528 36.528 0 0 1-8.192 7.379c-3.126 2.057-6.585 3.648-10.232 4.605-3.627.951-7.08 1.179-10.212.783-3.105-.393-5.888-1.398-8.209-2.916-2.298-1.503-4.142-3.505-5.404-5.914-1.25-2.383-1.929-5.163-1.918-8.25.012-3.058.702-6.137 1.931-9.09 1.222-2.934 2.982-5.752 5.153-8.312a36.6 36.6 0 0 1 7.616-6.771c2.876-1.916 6.059-3.447 9.43-4.444h-.001Zm18.485 13.978a3.275 3.275 0 0 0 .472-.577c.043-.069.084-.138.12-.208.155-.297.242-.59.267-.872a1.705 1.705 0 0 0-.106-.78 1.493 1.493 0 0 0-.445-.607 1.759 1.759 0 0 0-.75-.349c-1.531-.333-3.182-.52-4.911-.581a42.05 42.05 0 0 0-5.351.173c-1.833.17-3.686.445-5.541.806a64.88 64.88 0 0 0-5.49 1.326 65.103 65.103 0 0 0-6.289 2.16c-.99.4-1.944.818-2.855 1.249-.911.43-1.779.876-2.594 1.33a3.24 3.24 0 0 0-.411.27 3.564 3.564 0 0 0-.535.51 2.93 2.93 0 0 0-.28.39 2.645 2.645 0 0 0-.282.622 2.059 2.059 0 0 0-.081.816 1.531 1.531 0 0 0 .167.536 1.304 1.304 0 0 0 .351.416 1.615 1.615 0 0 0 .697.312 2.39 2.39 0 0 0 .86-.012l.056-.012c.019-.004.038-.008.057-.014l.057-.015.056-.016a2.82 2.82 0 0 0 .338-.117 3.1 3.1 0 0 0 .329-.16c.718-.4 1.486-.79 2.296-1.17.811-.38 1.662-.75 2.548-1.104a56.946 56.946 0 0 1 2.749-1.015 59.498 59.498 0 0 1 2.898-.903 59.11 59.11 0 0 1 4.919-1.178 50.648 50.648 0 0 1 4.951-.718 37.413 37.413 0 0 1 4.748-.154c1.525.056 2.973.224 4.301.522a2.382 2.382 0 0 0 .442.053c.076.002.153 0 .231-.005.078-.006.156-.015.236-.027l.087-.014a1.15 1.15 0 0 0 .086-.018l.087-.021.087-.023c.05-.014.1-.03.151-.047l.149-.055c.049-.02.1-.04.149-.063.049-.021.098-.046.147-.07a3.541 3.541 0 0 0 .641-.421 3.74 3.74 0 0 0 .19-.17m-2.566 7.363c.135-.249.214-.5.239-.737a1.496 1.496 0 0 0-.074-.67 1.266 1.266 0 0 0-.361-.527 1.456 1.456 0 0 0-.618-.314 26.42 26.42 0 0 0-4.283-.679 34.921 34.921 0 0 0-4.637-.048 42.573 42.573 0 0 0-4.84.546 47.16 47.16 0 0 0-4.897 1.105c-.862.244-1.722.512-2.574.804a46.63 46.63 0 0 0-7.377 3.264 2.893 2.893 0 0 0-.924.818 2.48 2.48 0 0 0-.208.344 2.2 2.2 0 0 0-.141.358 1.884 1.884 0 0 0-.071.353c-.012.116-.009.23.004.34a1.23 1.23 0 0 0 .227.592 1.182 1.182 0 0 0 .484.39 1.557 1.557 0 0 0 .54.131 1.887 1.887 0 0 0 .462-.024 2.246 2.246 0 0 0 .378-.097c.046-.016.094-.035.142-.054a3.545 3.545 0 0 0 .279-.135 37.601 37.601 0 0 1 2.096-1.076 42.131 42.131 0 0 1 4.435-1.793 43.15 43.15 0 0 1 6.7-1.695 38.501 38.501 0 0 1 4.347-.487 31.4 31.4 0 0 1 4.137.04c1.324.106 2.597.307 3.774.608a1.644 1.644 0 0 0 .366.055c.063.004.128.004.193 0s.132-.009.197-.017c.026-.003.054-.007.08-.012l.08-.015c.026-.005.054-.01.08-.017l.08-.021a1.882 1.882 0 0 0 .24-.078c.039-.014.078-.032.118-.047a2.752 2.752 0 0 0 .485-.273 2.91 2.91 0 0 0 .334-.273 2.597 2.597 0 0 0 .51-.66m-2.848 7.151c.109-.204.173-.407.194-.602.02-.194 0-.379-.059-.546a1.05 1.05 0 0 0-.288-.433 1.178 1.178 0 0 0-.496-.26 23.471 23.471 0 0 0-3.558-.63 27.052 27.052 0 0 0-3.755-.106 32.14 32.14 0 0 0-3.949.41c-1.35.22-2.727.527-4.141.917-.759.209-1.529.444-2.308.702a59.174 59.174 0 0 0-4.782 1.841c-.815.355-1.639.734-2.473 1.138a2.33 2.33 0 0 0-.753.626 2.013 2.013 0 0 0-.305.553 1.568 1.568 0 0 0-.072.283c-.015.094-.02.187-.016.276a1.043 1.043 0 0 0 .14.497 1.003 1.003 0 0 0 .584.459c.065.021.133.036.202.046a1.543 1.543 0 0 0 .437-.002 1.67 1.67 0 0 0 .227-.048c.025-.006.049-.014.074-.021l.074-.026a.744.744 0 0 0 .074-.028l.074-.03a63.318 63.318 0 0 1 2.306-1.058c.76-.33 1.511-.637 2.251-.921.74-.284 1.473-.546 2.193-.784a41.822 41.822 0 0 1 2.138-.647 35.922 35.922 0 0 1 3.728-.82 28.98 28.98 0 0 1 3.539-.363 24.007 24.007 0 0 1 3.347.098c1.082.11 2.136.3 3.154.567a1.28 1.28 0 0 0 .295.046 1.62 1.62 0 0 0 .315-.012l.063-.01.063-.012c.021-.003.042-.009.063-.014l.063-.016c.033-.008.064-.018.096-.029l.097-.034.096-.039.094-.044a2.213 2.213 0 0 0 .975-.927" fill="#1AC256" opacity=".9"/></g><g filter="url(#filter2_d_2082_714)"><path d="m214.087 335.794-.012-.232a26.008 26.008 0 0 0-.062-.88l-.533-5.721c.028.297.047.594.065.892l.012.237c.012.26.019.519.023.779l.003.122c.002.293-.002.587-.011.88-.002.074-.006.152-.007.226-.01.245-.024.488-.041.731l-.012.184c-.022.29-.051.583-.084.873l-.025.202c-.029.238-.062.477-.098.715a29.865 29.865 0 0 1-.188 1.076c-.01.05-.022.101-.034.153-.05.242-.105.486-.162.731-.017.075-.037.151-.056.229a24.64 24.64 0 0 1-.227.857c-.006.022-.014.044-.019.065a25.737 25.737 0 0 1-.592 1.79.873.873 0 0 0-.026.077c-.106.283-.219.562-.336.84l-.102.238c-.088.205-.18.411-.274.615l-.118.255c-.115.238-.23.477-.353.712l-.053.109c-.138.269-.285.535-.435.802l-.128.223c-.113.198-.229.394-.35.59-.049.08-.098.162-.15.241-.141.224-.286.449-.435.67l-.071.109-.088.124a25.96 25.96 0 0 1-1.45 1.916c-.075.089-.15.182-.225.272-.268.317-.545.631-.831.937-.031.032-.065.065-.096.099a25.13 25.13 0 0 1-.793.807c-.162.159-.327.317-.494.475-.04.039-.081.076-.123.115-.232.213-.468.421-.706.628-.061.051-.124.102-.184.154-.192.163-.389.322-.587.482l-.196.156c-.251.196-.505.39-.764.581l-.12.084a25.469 25.469 0 0 1-.916.634 33.06 33.06 0 0 1-.723.465l-.112.069c-.176.109-.355.211-.534.315-.14.084-.278.166-.421.248-.191.107-.385.209-.58.312-.134.072-.266.146-.402.215-.217.113-.439.219-.661.325-.118.055-.232.115-.35.171-.343.16-.687.314-1.039.463l-104.446 44.12a29.4 29.4 0 0 1-9.73 2.288 27.737 27.737 0 0 1-9.386-1.044 25.921 25.921 0 0 1-8.194-4.04 24.335 24.335 0 0 1-6.186-6.683l2.979 4.778a24.032 24.032 0 0 0 6.098 6.597 25.603 25.603 0 0 0 8.074 3.989 27.333 27.333 0 0 0 9.242 1.037 28.831 28.831 0 0 0 9.575-2.251l102.775-43.435c.343-.145.68-.295 1.016-.451l.007-.001c.114-.053.224-.112.337-.166.214-.105.432-.207.643-.315l.013-.008c.138-.071.269-.147.404-.219.181-.097.364-.192.541-.291.008-.002.014-.008.021-.012.138-.078.273-.16.411-.243.168-.097.335-.194.5-.293l.032-.019.107-.069a29.87 29.87 0 0 0 .941-.613l.209-.142c.157-.109.312-.219.467-.331.039-.029.079-.055.117-.083.215-.159.431-.319.64-.481.038-.028.074-.059.114-.09l.193-.154c.196-.156.389-.315.579-.475.038-.034.08-.065.119-.099l.059-.054.098-.082a29.737 29.737 0 0 0 .719-.65c.125-.118.253-.235.377-.356.038-.036.073-.077.111-.113.265-.26.527-.525.78-.796.024-.028.055-.052.079-.08a26.494 26.494 0 0 0 .833-.941c.024-.03.054-.057.078-.088.049-.058.094-.122.145-.181.194-.235.383-.472.568-.713.044-.057.093-.114.137-.172.032-.042.058-.084.09-.126.216-.288.426-.583.63-.879.021-.033.047-.064.068-.096l.018-.027.071-.107c.147-.217.288-.439.427-.66.021-.032.045-.065.065-.1.028-.047.054-.094.083-.138l.153-.249c.065-.111.126-.221.192-.332.043-.073.086-.146.126-.221.141-.254.283-.509.416-.767.004-.009.007-.017.013-.023l.052-.103a18.443 18.443 0 0 0 .463-.959c.042-.09.084-.178.124-.268.049-.113.096-.228.144-.34.034-.079.068-.155.1-.233.111-.269.219-.537.322-.808l.008-.023c.01-.025.017-.052.027-.077a22.798 22.798 0 0 0 .34-.983 29.131 29.131 0 0 0 .261-.844c.064-.223.123-.448.182-.674l.04-.172.025-.097c.011-.044.017-.086.029-.127.056-.239.109-.48.16-.72.009-.051.021-.102.031-.152.057-.283.106-.566.152-.852l.032-.211c.017-.111.036-.222.05-.335.017-.123.031-.249.046-.372a19.448 19.448 0 0 0 .105-1.058c.006-.06.008-.119.013-.182.017-.241.03-.481.037-.72.002-.074.007-.149.009-.224l.006-.149c.005-.241.008-.479.005-.721l-.003-.119a27.887 27.887 0 0 0-.023-.768l.001.004Z" fill="#B2B2B2"/><path d="M133.761 220.941a29.773 29.773 0 0 1 10.096-2.267c3.367-.153 6.676.28 9.746 1.243 3.071.964 5.922 2.461 8.345 4.44 2.432 1.982 4.446 4.447 5.855 7.34l43.342 88.982a23.885 23.885 0 0 1 2.43 9.971 24.476 24.476 0 0 1-1.861 9.852 26.391 26.391 0 0 1-5.74 8.582c-2.508 2.516-5.595 4.632-9.167 6.141L92.361 399.344c-3.6 1.52-7.306 2.274-10.922 2.335a27.43 27.43 0 0 1-10.354-1.818c-3.228-1.247-6.15-3.1-8.597-5.489a24.104 24.104 0 0 1-5.69-8.659l-35.643-92.804a21.256 21.256 0 0 1-1.34-9.274c.234-3.1 1.117-6.164 2.556-9.024 1.44-2.853 3.435-5.505 5.904-7.788a29.636 29.636 0 0 1 8.74-5.585l96.746-40.297Z" fill="url(#paint2_linear_2082_714)"/><path d="m109.658 261.83 31.774-12.97 35.038 79.023-66.812-66.053ZM110.615 335.494l-.133-40.4 42.412 42.447-13.768 5.644-13.223-13.955-15.288 6.264ZM55.398 283.976l31.854-13.002-.067 93.507-31.787-80.505Z" fill="#DD4245"/></g><defs><linearGradient id="paint0_linear_2082_714" x1="60.639" y1="44.178" x2="27.573" y2="22.243" gradientUnits="userSpaceOnUse"><stop stop-color="#fff"/><stop offset="1" stop-color="#F0F0F0"/></linearGradient><linearGradient id="paint1_linear_2082_714" x1="211.499" y1="83.761" x2="146.543" y2="98.692" gradientUnits="userSpaceOnUse"><stop stop-color="#fff"/><stop offset="1" stop-color="#F0F0F0"/></linearGradient><linearGradient id="paint2_linear_2082_714" x1="188.332" y1="272.197" x2="52.358" y2="342.4" gradientUnits="userSpaceOnUse"><stop stop-color="#F9F9F9"/><stop offset="1" stop-color="#F0F0F0"/></linearGradient><filter id="filter0_df_2082_714" x=".489" y="8.118" width="141.349" height="132.159" filterUnits="userSpaceOnUse" color-interpolation-filters="sRGB"><feFlood flood-opacity="0" result="BackgroundImageFix"/><feColorMatrix in="SourceAlpha" values="0 0 0 0 0 0 0 0 0 0 0 0 0 0 0 0 0 0 127 0" result="hardAlpha"/><feOffset dx="30" dy="40"/><feGaussianBlur stdDeviation="20"/><feComposite in2="hardAlpha" operator="out"/><feColorMatrix values="0 0 0 0 0 0 0 0 0 0 0 0 0 0 0 0 0 0 0.1 0"/><feBlend in2="BackgroundImageFix" result="effect1_dropShadow_2082_714"/><feBlend in="SourceGraphic" in2="effect1_dropShadow_2082_714" result="shape"/><feGaussianBlur stdDeviation="1.5" result="effect2_foregroundBlur_2082_714"/></filter><filter id="filter1_df_2082_714" x="129.049" y="49.971" width="161.029" height="170.943" filterUnits="userSpaceOnUse" color-interpolation-filters="sRGB"><feFlood flood-opacity="0" result="BackgroundImageFix"/><feColorMatrix in="SourceAlpha" values="0 0 0 0 0 0 0 0 0 0 0 0 0 0 0 0 0 0 127 0" result="hardAlpha"/><feOffset dx="30" dy="40"/><feGaussianBlur stdDeviation="20"/><feComposite in2="hardAlpha" operator="out"/><feColorMatrix values="0 0 0 0 0 0 0 0 0 0 0 0 0 0 0 0 0 0 0.1 0"/><feBlend in2="BackgroundImageFix" result="effect1_dropShadow_2082_714"/><feBlend in="SourceGraphic" in2="effect1_dropShadow_2082_714" result="shape"/><feGaussianBlur stdDeviation="1" result="effect2_foregroundBlur_2082_714"/></filter><filter id="filter2_d_2082_714" x="9.752" y="218.644" width="274.361" height="267.675" filterUnits="userSpaceOnUse" color-interpolation-filters="sRGB"><feFlood flood-opacity="0" result="BackgroundImageFix"/><feColorMatrix in="SourceAlpha" values="0 0 0 0 0 0 0 0 0 0 0 0 0 0 0 0 0 0 127 0" result="hardAlpha"/><feOffset dx="30" dy="40"/><feGaussianBlur stdDeviation="20"/><feComposite in2="hardAlpha" operator="out"/><feColorMatrix values="0 0 0 0 0 0 0 0 0 0 0 0 0 0 0 0 0 0 0.1 0"/><feBlend in2="BackgroundImageFix" result="effect1_dropShadow_2082_714"/><feBlend in="SourceGraphic" in2="effect1_dropShadow_2082_714" result="shape"/></filter></defs></svg>