<?xml version="1.0" encoding="UTF-8"?>
<!DOCTYPE svg PUBLIC "-//W3C//DTD SVG 1.1//EN" "http://www.w3.org/Graphics/SVG/1.1/DTD/svg11.dtd">
<svg xmlns="http://www.w3.org/2000/svg" version="1.1" width="512px" height="512px" style="shape-rendering:geometricPrecision; text-rendering:geometricPrecision; image-rendering:optimizeQuality; fill-rule:evenodd; clip-rule:evenodd" xmlns:xlink="http://www.w3.org/1999/xlink">
<g><path style="opacity:1" fill="#000000" d="M 31.5,7.5 C 138.167,7.33333 244.834,7.5 351.5,8C 364,11.1667 371.833,19 375,31.5C 375.5,119.499 375.667,207.499 375.5,295.5C 407.835,295.333 440.168,295.5 472.5,296C 488.667,300.167 498.833,310.333 503,326.5C 503.667,375.167 503.667,423.833 503,472.5C 498.833,488.667 488.667,498.833 472.5,503C 391.833,503.667 311.167,503.667 230.5,503C 220.992,500.751 213.326,495.751 207.5,488C 148.833,487.667 90.1667,487.333 31.5,487C 19,483.833 11.1667,476 8,463.5C 7.33333,319.5 7.33333,175.5 8,31.5C 11.349,18.9853 19.1824,10.9853 31.5,7.5 Z M 39.5,23.5 C 140.834,23.3333 242.167,23.5 343.5,24C 352.667,25.1667 357.833,30.3333 359,39.5C 359.5,124.833 359.667,210.166 359.5,295.5C 354.167,295.5 348.833,295.5 343.5,295.5C 343.949,285.395 343.449,275.395 342,265.5C 341.25,264.874 340.416,264.374 339.5,264C 330.167,263.833 320.833,263.667 311.5,263.5C 301.405,263.357 291.405,263.857 281.5,265C 280.874,265.75 280.374,266.584 280,267.5C 279.5,276.827 279.334,286.161 279.5,295.5C 274.167,295.5 268.833,295.5 263.5,295.5C 263.666,286.161 263.5,276.827 263,267.5C 262.5,265.667 261.333,264.5 259.5,264C 240.833,263.333 222.167,263.333 203.5,264C 201.667,264.5 200.5,265.667 200,267.5C 199.5,274.158 199.334,280.825 199.5,287.5C 204.833,287.5 210.167,287.5 215.5,287.5C 215.5,284.833 215.5,282.167 215.5,279.5C 226.167,279.5 236.833,279.5 247.5,279.5C 247.5,284.833 247.5,290.167 247.5,295.5C 223.246,293.196 207.413,303.529 200,326.5C 199.5,358.832 199.333,391.165 199.5,423.5C 160.832,423.333 122.165,423.5 83.5,424C 81.6667,424.5 80.5,425.667 80,427.5C 79.5001,442.163 79.3334,456.83 79.5,471.5C 64.4502,471.916 49.4502,471.416 34.5,470C 27.9469,467.399 24.4469,462.566 24,455.5C 23.3333,316.833 23.3333,178.167 24,39.5C 25.3459,30.3224 30.5125,24.9891 39.5,23.5 Z M 55.5,55.5 C 146.167,55.5 236.833,55.5 327.5,55.5C 327.5,87.5 327.5,119.5 327.5,151.5C 236.833,151.5 146.167,151.5 55.5,151.5C 55.5,119.5 55.5,87.5 55.5,55.5 Z M 119.5,87.5 C 124.833,87.5 130.167,87.5 135.5,87.5C 135.5,98.1667 135.5,108.833 135.5,119.5C 130.167,119.5 124.833,119.5 119.5,119.5C 119.5,108.833 119.5,98.1667 119.5,87.5 Z M 215.5,87.5 C 220.833,87.5 226.167,87.5 231.5,87.5C 231.5,98.1667 231.5,108.833 231.5,119.5C 226.167,119.5 220.833,119.5 215.5,119.5C 215.5,108.833 215.5,98.1667 215.5,87.5 Z M 279.5,87.5 C 284.833,87.5 290.167,87.5 295.5,87.5C 295.5,98.1667 295.5,108.833 295.5,119.5C 290.167,119.5 284.833,119.5 279.5,119.5C 279.5,108.833 279.5,98.1667 279.5,87.5 Z M 55.5,199.5 C 66.1667,199.5 76.8333,199.5 87.5,199.5C 87.5,210.167 87.5,220.833 87.5,231.5C 76.8333,231.5 66.1667,231.5 55.5,231.5C 55.5,220.833 55.5,210.167 55.5,199.5 Z M 135.5,199.5 C 146.167,199.5 156.833,199.5 167.5,199.5C 167.5,210.167 167.5,220.833 167.5,231.5C 156.833,231.5 146.167,231.5 135.5,231.5C 135.5,220.833 135.5,210.167 135.5,199.5 Z M 215.5,199.5 C 226.167,199.5 236.833,199.5 247.5,199.5C 247.5,210.167 247.5,220.833 247.5,231.5C 236.833,231.5 226.167,231.5 215.5,231.5C 215.5,220.833 215.5,210.167 215.5,199.5 Z M 295.5,199.5 C 306.167,199.5 316.833,199.5 327.5,199.5C 327.5,210.167 327.5,220.833 327.5,231.5C 316.833,231.5 306.167,231.5 295.5,231.5C 295.5,220.833 295.5,210.167 295.5,199.5 Z M 55.5,279.5 C 66.1667,279.5 76.8333,279.5 87.5,279.5C 87.5,290.167 87.5,300.833 87.5,311.5C 76.8333,311.5 66.1667,311.5 55.5,311.5C 55.5,300.833 55.5,290.167 55.5,279.5 Z M 135.5,279.5 C 146.167,279.5 156.833,279.5 167.5,279.5C 167.5,290.167 167.5,300.833 167.5,311.5C 156.833,311.5 146.167,311.5 135.5,311.5C 135.5,300.833 135.5,290.167 135.5,279.5 Z M 295.5,279.5 C 306.167,279.5 316.833,279.5 327.5,279.5C 327.5,284.833 327.5,290.167 327.5,295.5C 316.833,295.5 306.167,295.5 295.5,295.5C 295.5,290.167 295.5,284.833 295.5,279.5 Z M 239.5,311.5 C 314.167,311.333 388.834,311.5 463.5,312C 477.65,313.483 485.483,321.317 487,335.5C 487.667,378.167 487.667,420.833 487,463.5C 485.167,477.333 477.333,485.167 463.5,487C 388.833,487.667 314.167,487.667 239.5,487C 225.333,485.5 217.5,477.667 216,463.5C 215.333,420.833 215.333,378.167 216,335.5C 217.695,321.307 225.528,313.307 239.5,311.5 Z M 55.5,359.5 C 66.1667,359.5 76.8333,359.5 87.5,359.5C 87.5,370.167 87.5,380.833 87.5,391.5C 76.8333,391.5 66.1667,391.5 55.5,391.5C 55.5,380.833 55.5,370.167 55.5,359.5 Z M 135.5,359.5 C 146.167,359.5 156.833,359.5 167.5,359.5C 167.5,370.167 167.5,380.833 167.5,391.5C 156.833,391.5 146.167,391.5 135.5,391.5C 135.5,380.833 135.5,370.167 135.5,359.5 Z M 287.5,367.5 C 292.833,367.5 298.167,367.5 303.5,367.5C 303.5,372.833 303.5,378.167 303.5,383.5C 298.167,383.5 292.833,383.5 287.5,383.5C 287.5,378.167 287.5,372.833 287.5,367.5 Z M 351.5,383.5 C 356.833,383.5 362.167,383.5 367.5,383.5C 367.5,388.833 367.5,394.167 367.5,399.5C 362.167,399.5 356.833,399.5 351.5,399.5C 351.5,394.167 351.5,388.833 351.5,383.5 Z M 415.5,399.5 C 420.833,399.5 426.167,399.5 431.5,399.5C 431.5,404.833 431.5,410.167 431.5,415.5C 426.167,415.5 420.833,415.5 415.5,415.5C 415.5,410.167 415.5,404.833 415.5,399.5 Z M 95.5,439.5 C 130.167,439.5 164.833,439.5 199.5,439.5C 199.5,450.167 199.5,460.833 199.5,471.5C 164.833,471.5 130.167,471.5 95.5,471.5C 95.5,460.833 95.5,450.167 95.5,439.5 Z"/></g>
<g><path style="opacity:1" fill="#000000" d="M 43.5,39.5 C 142.167,39.3333 240.834,39.5 339.5,40C 341.333,40.5 342.5,41.6667 343,43.5C 343.667,83.5 343.667,123.5 343,163.5C 342.5,165.333 341.333,166.5 339.5,167C 240.833,167.667 142.167,167.667 43.5,167C 41.6667,166.5 40.5,165.333 40,163.5C 39.3333,123.5 39.3333,83.5 40,43.5C 40.6897,41.6498 41.8564,40.3164 43.5,39.5 Z M 55.5,55.5 C 55.5,87.5 55.5,119.5 55.5,151.5C 146.167,151.5 236.833,151.5 327.5,151.5C 327.5,119.5 327.5,87.5 327.5,55.5C 236.833,55.5 146.167,55.5 55.5,55.5 Z M 119.5,87.5 C 119.5,98.1667 119.5,108.833 119.5,119.5C 124.833,119.5 130.167,119.5 135.5,119.5C 135.5,108.833 135.5,98.1667 135.5,87.5C 130.167,87.5 124.833,87.5 119.5,87.5 Z M 215.5,87.5 C 215.5,98.1667 215.5,108.833 215.5,119.5C 220.833,119.5 226.167,119.5 231.5,119.5C 231.5,108.833 231.5,98.1667 231.5,87.5C 226.167,87.5 220.833,87.5 215.5,87.5 Z M 279.5,87.5 C 279.5,98.1667 279.5,108.833 279.5,119.5C 284.833,119.5 290.167,119.5 295.5,119.5C 295.5,108.833 295.5,98.1667 295.5,87.5C 290.167,87.5 284.833,87.5 279.5,87.5 Z"/></g>
<g><path style="opacity:1" fill="#000000" d="M 107.5,71.5 C 120.837,71.3334 134.171,71.5001 147.5,72C 148.416,72.3742 149.25,72.8742 150,73.5C 151.143,83.4052 151.643,93.4052 151.5,103.5C 151.333,112.833 151.167,122.167 151,131.5C 150.626,132.416 150.126,133.25 149.5,134C 142.267,135.133 134.934,135.633 127.5,135.5C 120.833,135.333 114.167,135.167 107.5,135C 106.584,134.626 105.75,134.126 105,133.5C 103.359,114.257 103.025,94.9233 104,75.5C 104.69,73.6498 105.856,72.3164 107.5,71.5 Z M 119.5,87.5 C 119.5,98.1667 119.5,108.833 119.5,119.5C 124.833,119.5 130.167,119.5 135.5,119.5C 135.5,108.833 135.5,98.1667 135.5,87.5C 130.167,87.5 124.833,87.5 119.5,87.5 Z"/></g>
<g><path style="opacity:1" fill="#000000" d="M 203.5,71.5 C 216.837,71.3334 230.171,71.5001 243.5,72C 244.416,72.3742 245.25,72.8742 246,73.5C 247.143,83.4052 247.643,93.4052 247.5,103.5C 247.333,112.833 247.167,122.167 247,131.5C 246.626,132.416 246.126,133.25 245.5,134C 238.267,135.133 230.934,135.633 223.5,135.5C 216.833,135.333 210.167,135.167 203.5,135C 202.584,134.626 201.75,134.126 201,133.5C 199.359,114.257 199.025,94.9233 200,75.5C 200.69,73.6498 201.856,72.3164 203.5,71.5 Z M 215.5,87.5 C 215.5,98.1667 215.5,108.833 215.5,119.5C 220.833,119.5 226.167,119.5 231.5,119.5C 231.5,108.833 231.5,98.1667 231.5,87.5C 226.167,87.5 220.833,87.5 215.5,87.5 Z"/></g>
<g><path style="opacity:1" fill="#000000" d="M 267.5,71.5 C 280.837,71.3334 294.171,71.5001 307.5,72C 308.416,72.3742 309.25,72.8742 310,73.5C 311.143,83.4052 311.643,93.4052 311.5,103.5C 311.333,112.833 311.167,122.167 311,131.5C 310.626,132.416 310.126,133.25 309.5,134C 302.267,135.133 294.934,135.633 287.5,135.5C 280.833,135.333 274.167,135.167 267.5,135C 266.584,134.626 265.75,134.126 265,133.5C 263.359,114.257 263.025,94.9233 264,75.5C 264.69,73.6498 265.856,72.3164 267.5,71.5 Z M 279.5,87.5 C 279.5,98.1667 279.5,108.833 279.5,119.5C 284.833,119.5 290.167,119.5 295.5,119.5C 295.5,108.833 295.5,98.1667 295.5,87.5C 290.167,87.5 284.833,87.5 279.5,87.5 Z"/></g>
<g><path style="opacity:1" fill="#000000" d="M 167.5,119.5 C 172.833,119.5 178.167,119.5 183.5,119.5C 183.5,124.833 183.5,130.167 183.5,135.5C 178.167,135.5 172.833,135.5 167.5,135.5C 167.5,130.167 167.5,124.833 167.5,119.5 Z"/></g>
<g><path style="opacity:1" fill="#000000" d="M 43.5,183.5 C 62.1696,183.333 80.8363,183.5 99.5,184C 100.416,184.374 101.25,184.874 102,185.5C 103.143,195.405 103.643,205.405 103.5,215.5C 111.833,245.167 101.167,255.833 71.5,247.5C 62.1667,247.333 52.8333,247.167 43.5,247C 42.5838,246.626 41.7504,246.126 41,245.5C 39.3588,226.257 39.0255,206.923 40,187.5C 40.6897,185.65 41.8564,184.316 43.5,183.5 Z M 55.5,199.5 C 55.5,210.167 55.5,220.833 55.5,231.5C 66.1667,231.5 76.8333,231.5 87.5,231.5C 87.5,220.833 87.5,210.167 87.5,199.5C 76.8333,199.5 66.1667,199.5 55.5,199.5 Z"/></g>
<g><path style="opacity:1" fill="#000000" d="M 123.5,183.5 C 142.17,183.333 160.836,183.5 179.5,184C 180.416,184.374 181.25,184.874 182,185.5C 183.143,195.405 183.643,205.405 183.5,215.5C 191.833,245.167 181.167,255.833 151.5,247.5C 142.167,247.333 132.833,247.167 123.5,247C 122.584,246.626 121.75,246.126 121,245.5C 119.359,226.257 119.025,206.923 120,187.5C 120.69,185.65 121.856,184.316 123.5,183.5 Z M 135.5,199.5 C 135.5,210.167 135.5,220.833 135.5,231.5C 146.167,231.5 156.833,231.5 167.5,231.5C 167.5,220.833 167.5,210.167 167.5,199.5C 156.833,199.5 146.167,199.5 135.5,199.5 Z"/></g>
<g><path style="opacity:1" fill="#000000" d="M 203.5,183.5 C 222.17,183.333 240.836,183.5 259.5,184C 260.416,184.374 261.25,184.874 262,185.5C 263.143,195.405 263.643,205.405 263.5,215.5C 271.833,245.167 261.167,255.833 231.5,247.5C 222.167,247.333 212.833,247.167 203.5,247C 202.584,246.626 201.75,246.126 201,245.5C 199.359,226.257 199.025,206.923 200,187.5C 200.69,185.65 201.856,184.316 203.5,183.5 Z M 215.5,199.5 C 215.5,210.167 215.5,220.833 215.5,231.5C 226.167,231.5 236.833,231.5 247.5,231.5C 247.5,220.833 247.5,210.167 247.5,199.5C 236.833,199.5 226.167,199.5 215.5,199.5 Z"/></g>
<g><path style="opacity:1" fill="#000000" d="M 283.5,183.5 C 302.17,183.333 320.836,183.5 339.5,184C 340.416,184.374 341.25,184.874 342,185.5C 343.143,195.405 343.643,205.405 343.5,215.5C 351.833,245.167 341.167,255.833 311.5,247.5C 302.167,247.333 292.833,247.167 283.5,247C 282.584,246.626 281.75,246.126 281,245.5C 279.359,226.257 279.025,206.923 280,187.5C 280.69,185.65 281.856,184.316 283.5,183.5 Z M 295.5,199.5 C 295.5,210.167 295.5,220.833 295.5,231.5C 306.167,231.5 316.833,231.5 327.5,231.5C 327.5,220.833 327.5,210.167 327.5,199.5C 316.833,199.5 306.167,199.5 295.5,199.5 Z"/></g>
<g><path style="opacity:1" fill="#000000" d="M 43.5,263.5 C 62.1696,263.333 80.8363,263.5 99.5,264C 100.416,264.374 101.25,264.874 102,265.5C 103.143,275.405 103.643,285.405 103.5,295.5C 111.833,325.167 101.167,335.833 71.5,327.5C 62.1667,327.333 52.8333,327.167 43.5,327C 42.5838,326.626 41.7504,326.126 41,325.5C 39.3588,306.257 39.0255,286.923 40,267.5C 40.6897,265.65 41.8564,264.316 43.5,263.5 Z M 55.5,279.5 C 55.5,290.167 55.5,300.833 55.5,311.5C 66.1667,311.5 76.8333,311.5 87.5,311.5C 87.5,300.833 87.5,290.167 87.5,279.5C 76.8333,279.5 66.1667,279.5 55.5,279.5 Z"/></g>
<g><path style="opacity:1" fill="#000000" d="M 123.5,263.5 C 142.17,263.333 160.836,263.5 179.5,264C 180.416,264.374 181.25,264.874 182,265.5C 183.143,275.405 183.643,285.405 183.5,295.5C 191.833,325.167 181.167,335.833 151.5,327.5C 142.167,327.333 132.833,327.167 123.5,327C 122.584,326.626 121.75,326.126 121,325.5C 119.359,306.257 119.025,286.923 120,267.5C 120.69,265.65 121.856,264.316 123.5,263.5 Z M 135.5,279.5 C 135.5,290.167 135.5,300.833 135.5,311.5C 146.167,311.5 156.833,311.5 167.5,311.5C 167.5,300.833 167.5,290.167 167.5,279.5C 156.833,279.5 146.167,279.5 135.5,279.5 Z"/></g>
<g><path style="opacity:1" fill="#000000" d="M 231.5,335.5 C 236.833,335.5 242.167,335.5 247.5,335.5C 247.5,375.5 247.5,415.5 247.5,455.5C 322.167,455.5 396.833,455.5 471.5,455.5C 471.5,460.833 471.5,466.167 471.5,471.5C 392.084,471.994 312.751,471.494 233.5,470C 232.874,469.25 232.374,468.416 232,467.5C 231.5,423.501 231.333,379.501 231.5,335.5 Z"/></g>
<g><path style="opacity:1" fill="#000000" d="M 287.5,335.5 C 292.833,335.5 298.167,335.5 303.5,335.5C 303.5,340.833 303.5,346.167 303.5,351.5C 307.514,351.334 311.514,351.501 315.5,352C 316.416,352.374 317.25,352.874 318,353.5C 319.133,360.733 319.633,368.066 319.5,375.5C 319.633,382.934 319.133,390.267 318,397.5C 317.25,398.126 316.416,398.626 315.5,399C 311.514,399.499 307.514,399.666 303.5,399.5C 303.5,404.833 303.5,410.167 303.5,415.5C 298.167,415.5 292.833,415.5 287.5,415.5C 287.5,410.167 287.5,404.833 287.5,399.5C 283.486,399.666 279.486,399.499 275.5,399C 274.584,398.626 273.75,398.126 273,397.5C 271.867,390.267 271.367,382.934 271.5,375.5C 271.367,368.066 271.867,360.733 273,353.5C 273.75,352.874 274.584,352.374 275.5,352C 279.486,351.501 283.486,351.334 287.5,351.5C 287.5,346.167 287.5,340.833 287.5,335.5 Z M 287.5,367.5 C 287.5,372.833 287.5,378.167 287.5,383.5C 292.833,383.5 298.167,383.5 303.5,383.5C 303.5,378.167 303.5,372.833 303.5,367.5C 298.167,367.5 292.833,367.5 287.5,367.5 Z"/></g>
<g><path style="opacity:1" fill="#000000" d="M 43.5,343.5 C 62.1696,343.333 80.8363,343.5 99.5,344C 100.416,344.374 101.25,344.874 102,345.5C 103.143,355.405 103.643,365.405 103.5,375.5C 111.833,405.167 101.167,415.833 71.5,407.5C 62.1667,407.333 52.8333,407.167 43.5,407C 42.5838,406.626 41.7504,406.126 41,405.5C 39.3588,386.257 39.0255,366.923 40,347.5C 40.6897,345.65 41.8564,344.316 43.5,343.5 Z M 55.5,359.5 C 55.5,370.167 55.5,380.833 55.5,391.5C 66.1667,391.5 76.8333,391.5 87.5,391.5C 87.5,380.833 87.5,370.167 87.5,359.5C 76.8333,359.5 66.1667,359.5 55.5,359.5 Z"/></g>
<g><path style="opacity:1" fill="#000000" d="M 123.5,343.5 C 142.17,343.333 160.836,343.5 179.5,344C 180.416,344.374 181.25,344.874 182,345.5C 183.143,355.405 183.643,365.405 183.5,375.5C 191.833,405.167 181.167,415.833 151.5,407.5C 142.167,407.333 132.833,407.167 123.5,407C 122.584,406.626 121.75,406.126 121,405.5C 119.359,386.257 119.025,366.923 120,347.5C 120.69,345.65 121.856,344.316 123.5,343.5 Z M 135.5,359.5 C 135.5,370.167 135.5,380.833 135.5,391.5C 146.167,391.5 156.833,391.5 167.5,391.5C 167.5,380.833 167.5,370.167 167.5,359.5C 156.833,359.5 146.167,359.5 135.5,359.5 Z"/></g>
<g><path style="opacity:1" fill="#000000" d="M 351.5,351.5 C 356.833,351.5 362.167,351.5 367.5,351.5C 367.5,356.833 367.5,362.167 367.5,367.5C 371.514,367.334 375.514,367.501 379.5,368C 380.416,368.374 381.25,368.874 382,369.5C 383.133,376.733 383.633,384.066 383.5,391.5C 383.633,398.934 383.133,406.267 382,413.5C 381.25,414.126 380.416,414.626 379.5,415C 375.514,415.499 371.514,415.666 367.5,415.5C 367.5,420.833 367.5,426.167 367.5,431.5C 362.167,431.5 356.833,431.5 351.5,431.5C 351.5,426.167 351.5,420.833 351.5,415.5C 347.486,415.666 343.486,415.499 339.5,415C 338.584,414.626 337.75,414.126 337,413.5C 335.867,406.267 335.367,398.934 335.5,391.5C 335.367,384.066 335.867,376.733 337,369.5C 337.75,368.874 338.584,368.374 339.5,368C 343.486,367.501 347.486,367.334 351.5,367.5C 351.5,362.167 351.5,356.833 351.5,351.5 Z M 351.5,383.5 C 351.5,388.833 351.5,394.167 351.5,399.5C 356.833,399.5 362.167,399.5 367.5,399.5C 367.5,394.167 367.5,388.833 367.5,383.5C 362.167,383.5 356.833,383.5 351.5,383.5 Z"/></g>
<g><path style="opacity:1" fill="#000000" d="M 415.5,367.5 C 420.833,367.5 426.167,367.5 431.5,367.5C 431.5,372.833 431.5,378.167 431.5,383.5C 435.514,383.334 439.514,383.501 443.5,384C 444.416,384.374 445.25,384.874 446,385.5C 447.133,392.733 447.633,400.066 447.5,407.5C 447.633,414.934 447.133,422.267 446,429.5C 445.25,430.126 444.416,430.626 443.5,431C 439.514,431.499 435.514,431.666 431.5,431.5C 431.5,436.833 431.5,442.167 431.5,447.5C 426.167,447.5 420.833,447.5 415.5,447.5C 415.5,442.167 415.5,436.833 415.5,431.5C 411.486,431.666 407.486,431.499 403.5,431C 402.584,430.626 401.75,430.126 401,429.5C 399.867,422.267 399.367,414.934 399.5,407.5C 399.367,400.066 399.867,392.733 401,385.5C 401.75,384.874 402.584,384.374 403.5,384C 407.486,383.501 411.486,383.334 415.5,383.5C 415.5,378.167 415.5,372.833 415.5,367.5 Z M 415.5,399.5 C 415.5,404.833 415.5,410.167 415.5,415.5C 420.833,415.5 426.167,415.5 431.5,415.5C 431.5,410.167 431.5,404.833 431.5,399.5C 426.167,399.5 420.833,399.5 415.5,399.5 Z"/></g>
</svg>
