<?xml version="1.0" encoding="UTF-8"?>
<!DOCTYPE svg PUBLIC "-//W3C//DTD SVG 1.1//EN" "http://www.w3.org/Graphics/SVG/1.1/DTD/svg11.dtd">
<svg xmlns="http://www.w3.org/2000/svg" version="1.1" width="512px" height="512px" style="shape-rendering:geometricPrecision; text-rendering:geometricPrecision; image-rendering:optimizeQuality; fill-rule:evenodd; clip-rule:evenodd" xmlns:xlink="http://www.w3.org/1999/xlink">
<g><path style="opacity:1" fill="#000000" d="M 344.5,-0.5 C 355.5,-0.5 366.5,-0.5 377.5,-0.5C 432.988,8.47766 471.155,39.1443 492,91.5C 509.269,150.936 495.435,201.769 450.5,244C 444.34,248.58 438.007,252.914 431.5,257C 480.013,290.79 500.513,337.29 493,396.5C 478.776,461.559 438.943,499.892 373.5,511.5C 362.833,511.5 352.167,511.5 341.5,511.5C 278.552,501.058 238.385,465.058 221,403.5C 219.6,395.867 218.433,388.2 217.5,380.5C 184.168,398.346 149.168,402.513 112.5,393C 61.6549,376.821 29.1549,342.988 15,291.5C 3.294,227.575 24.1273,177.409 77.5,141C 118.397,118.405 160.73,115.405 204.5,132C 210.573,134.785 216.406,137.952 222,141.5C 223.57,77.8135 253.403,33.3135 311.5,8C 322.356,4.06957 333.356,1.23624 344.5,-0.5 Z M 351.5,13.5 C 410.998,12.8907 452.832,39.5573 477,93.5C 494.498,149.987 480.998,197.487 436.5,236C 429.917,240.543 423.083,244.71 416,248.5C 384.551,234.482 352.051,231.649 318.5,240C 308.16,243.001 298.326,247.168 289,252.5C 285.486,211.804 268.486,178.137 238,151.5C 234.18,100.981 253.013,61.4811 294.5,33C 312.205,22.377 331.205,15.877 351.5,13.5 Z M 354.5,43.5 C 399.477,43.3818 430.977,63.7151 449,104.5C 461.814,143.741 453.648,177.908 424.5,207C 421.5,209.333 418.5,211.667 415.5,214C 404.955,211.494 394.289,209.161 383.5,207C 359.266,203.558 335.266,204.558 311.5,210C 302.716,182.581 288.216,158.748 268,138.5C 268.292,102.415 283.792,74.9151 314.5,56C 327.173,49.2729 340.507,45.1062 354.5,43.5 Z M 351.5,97.5 C 357.593,97.1392 363.593,97.6392 369.5,99C 377.5,106 377.5,113 369.5,120C 363.621,121.41 357.621,121.91 351.5,121.5C 351.5,113.5 351.5,105.5 351.5,97.5 Z M 138.5,135.5 C 191.578,133.781 231.745,155.448 259,200.5C 282.999,251.491 277.333,298.825 242,342.5C 203.279,381.314 157.779,392.148 105.5,375C 55.94,353.257 29.2733,315.257 25.5,261C 27.5458,211.877 49.5458,174.877 91.5,150C 106.45,142.402 122.117,137.569 138.5,135.5 Z M 351.5,136.5 C 359.84,136.334 368.173,136.5 376.5,137C 383.867,141.648 385.7,147.815 382,155.5C 380.786,157.049 379.286,158.215 377.5,159C 368.916,160.41 360.25,160.91 351.5,160.5C 351.5,152.5 351.5,144.5 351.5,136.5 Z M 141.5,165.5 C 186.126,164.718 217.959,184.385 237,224.5C 251.08,266.347 241.914,302.18 209.5,332C 173.864,358.235 136.864,360.235 98.5,338C 61.336,310.512 48.836,274.346 61,229.5C 75.5552,192.5 102.389,171.166 141.5,165.5 Z M 149.5,198.5 C 163.492,215.168 177.159,232.168 190.5,249.5C 177.08,256.96 163.58,264.294 150,271.5C 136.385,264.278 122.885,256.944 109.5,249.5C 122.857,232.481 136.19,215.481 149.5,198.5 Z M 347.5,249.5 C 406.183,249.234 447.683,275.567 472,328.5C 490.144,385.387 476.644,433.22 431.5,472C 388.076,502.378 342.743,505.378 295.5,481C 253.8,456.113 232.967,419.28 233,370.5C 265.9,345.381 284.233,312.048 288,270.5C 306.188,258.605 326.021,251.605 347.5,249.5 Z M 120.5,273.5 C 129.09,277.128 137.423,281.295 145.5,286C 148.5,286.667 151.5,286.667 154.5,286C 162.577,281.295 170.91,277.128 179.5,273.5C 169.677,288.472 159.844,303.472 150,318.5C 139.659,303.814 129.826,288.814 120.5,273.5 Z M 347.5,279.5 C 390.508,278.41 422.008,296.743 442,334.5C 456.548,371.125 451.548,404.791 427,435.5C 397.837,465.416 363.337,473.916 323.5,461C 288.517,446.696 268.684,420.863 264,383.5C 291.856,357.807 309.356,326.14 316.5,288.5C 326.548,284.076 336.881,281.076 347.5,279.5 Z"/></g>
<g><path style="opacity:1" fill="#000000" d="M 346.5,29.5 C 393.311,25.991 429.478,43.6577 455,82.5C 474.63,120.051 474.297,157.384 454,194.5C 444.785,209.381 432.619,221.215 417.5,230C 415.833,230.667 414.167,230.667 412.5,230C 377.443,217.016 342.11,216.183 306.5,227.5C 304.701,227.423 303.034,226.923 301.5,226C 296.362,210.253 289.862,195.086 282,180.5C 273.773,167.403 264.107,155.403 253,144.5C 252.334,92.9843 275.501,56.8176 322.5,36C 330.459,33.1794 338.459,31.0127 346.5,29.5 Z M 354.5,43.5 C 340.507,45.1062 327.173,49.2729 314.5,56C 283.792,74.9151 268.292,102.415 268,138.5C 288.216,158.748 302.716,182.581 311.5,210C 335.266,204.558 359.266,203.558 383.5,207C 394.289,209.161 404.955,211.494 415.5,214C 418.5,211.667 421.5,209.333 424.5,207C 453.648,177.908 461.814,143.741 449,104.5C 430.977,63.7151 399.477,43.3818 354.5,43.5 Z M 351.5,97.5 C 351.5,105.5 351.5,113.5 351.5,121.5C 357.621,121.91 363.621,121.41 369.5,120C 377.5,113 377.5,106 369.5,99C 363.593,97.6392 357.593,97.1392 351.5,97.5 Z M 351.5,136.5 C 351.5,144.5 351.5,152.5 351.5,160.5C 360.25,160.91 368.916,160.41 377.5,159C 379.286,158.215 380.786,157.049 382,155.5C 385.7,147.815 383.867,141.648 376.5,137C 368.173,136.5 359.84,136.334 351.5,136.5 Z"/></g>
<g><path style="opacity:1" fill="#000000" d="M 350.5,69.5 C 354.287,68.8144 357.454,69.8144 360,72.5C 360.826,75.7928 361.326,79.1262 361.5,82.5C 382.839,84.6672 392.006,96.3338 389,117.5C 388.361,120.112 387.194,122.446 385.5,124.5C 398.175,133.703 401.675,145.703 396,160.5C 392.611,167.554 387.111,172.054 379.5,174C 373.509,174.499 367.509,174.666 361.5,174.5C 361.92,179.663 360.92,184.496 358.5,189C 353.498,191.601 349.665,190.434 347,185.5C 346.501,181.848 346.335,178.182 346.5,174.5C 341.519,175.332 336.519,175.498 331.5,175C 323.354,173.529 321.354,169.196 325.5,162C 329.026,160.663 332.692,160.163 336.5,160.5C 336.5,139.5 336.5,118.5 336.5,97.5C 331.568,98.2161 327.402,96.8827 324,93.5C 322.108,87.9579 323.941,84.4579 329.5,83C 335.157,82.5006 340.824,82.3339 346.5,82.5C 346.336,79.8127 346.503,77.146 347,74.5C 347.257,72.0935 348.424,70.4268 350.5,69.5 Z M 351.5,97.5 C 351.5,105.5 351.5,113.5 351.5,121.5C 357.621,121.91 363.621,121.41 369.5,120C 377.5,113 377.5,106 369.5,99C 363.593,97.6392 357.593,97.1392 351.5,97.5 Z M 351.5,136.5 C 351.5,144.5 351.5,152.5 351.5,160.5C 360.25,160.91 368.916,160.41 377.5,159C 379.286,158.215 380.786,157.049 382,155.5C 385.7,147.815 383.867,141.648 376.5,137C 368.173,136.5 359.84,136.334 351.5,136.5 Z"/></g>
<g><path style="opacity:1" fill="#000000" d="M 134.5,151.5 C 189.236,147.598 228.069,170.264 251,219.5C 268.315,275.225 253.148,319.725 205.5,353C 174.242,369.677 141.909,372.01 108.5,360C 65.9045,340.378 43.5711,307.045 41.5,260C 44.0048,210.516 68.0048,176.183 113.5,157C 120.586,154.98 127.586,153.147 134.5,151.5 Z M 141.5,165.5 C 102.389,171.166 75.5552,192.5 61,229.5C 48.836,274.346 61.336,310.512 98.5,338C 136.864,360.235 173.864,358.235 209.5,332C 241.914,302.18 251.08,266.347 237,224.5C 217.959,184.385 186.126,164.718 141.5,165.5 Z M 149.5,198.5 C 136.19,215.481 122.857,232.481 109.5,249.5C 122.885,256.944 136.385,264.278 150,271.5C 163.58,264.294 177.08,256.96 190.5,249.5C 177.159,232.168 163.492,215.168 149.5,198.5 Z M 120.5,273.5 C 129.09,277.128 137.423,281.295 145.5,286C 148.5,286.667 151.5,286.667 154.5,286C 162.577,281.295 170.91,277.128 179.5,273.5C 169.677,288.472 159.844,303.472 150,318.5C 139.659,303.814 129.826,288.814 120.5,273.5 Z"/></g>
<g><path style="opacity:1" fill="#000000" d="M 146.5,179.5 C 151.543,178.431 155.377,180.097 158,184.5C 174.667,205.167 191.333,225.833 208,246.5C 209.483,249.702 209.817,253.036 209,256.5C 190.892,284.273 172.392,311.773 153.5,339C 149.102,340.378 145.602,339.212 143,335.5C 124.656,308.14 106.822,280.474 89.5,252.5C 90.5575,248.717 92.3908,245.383 95,242.5C 112.001,221.336 129.168,200.336 146.5,179.5 Z M 149.5,198.5 C 136.19,215.481 122.857,232.481 109.5,249.5C 122.885,256.944 136.385,264.278 150,271.5C 163.58,264.294 177.08,256.96 190.5,249.5C 177.159,232.168 163.492,215.168 149.5,198.5 Z M 120.5,273.5 C 129.09,277.128 137.423,281.295 145.5,286C 148.5,286.667 151.5,286.667 154.5,286C 162.577,281.295 170.91,277.128 179.5,273.5C 169.677,288.472 159.844,303.472 150,318.5C 139.659,303.814 129.826,288.814 120.5,273.5 Z"/></g>
<g><path style="opacity:1" fill="#000000" d="M 341.5,265.5 C 389.106,261.554 425.606,279.554 451,319.5C 472.329,362.21 468.996,402.877 441,441.5C 406.545,479.907 364.711,490.741 315.5,474C 273.857,455.202 251.69,423.035 249,377.5C 278.466,351.242 296.466,318.575 303,279.5C 315.013,272.331 327.847,267.665 341.5,265.5 Z M 347.5,279.5 C 336.881,281.076 326.548,284.076 316.5,288.5C 309.356,326.14 291.856,357.807 264,383.5C 268.684,420.863 288.517,446.696 323.5,461C 363.337,473.916 397.837,465.416 427,435.5C 451.548,404.791 456.548,371.125 442,334.5C 422.008,296.743 390.508,278.41 347.5,279.5 Z"/></g>
<g><path style="opacity:1" fill="#000000" d="M 353.5,316.5 C 356.602,316.154 359.435,316.821 362,318.5C 363.791,323.17 364.291,327.837 363.5,332.5C 368.267,332.191 372.934,332.691 377.5,334C 381.5,338 381.5,342 377.5,346C 367.605,347.449 357.605,347.949 347.5,347.5C 347.5,353.833 347.5,360.167 347.5,366.5C 357.506,366.334 367.506,366.5 377.5,367C 378.701,367.903 379.535,369.069 380,370.5C 380.667,383.5 380.667,396.5 380,409.5C 379.535,410.931 378.701,412.097 377.5,413C 372.898,414.122 368.232,414.622 363.5,414.5C 364.383,419.488 363.716,424.322 361.5,429C 356.473,431.62 352.64,430.453 350,425.5C 349.501,421.848 349.335,418.182 349.5,414.5C 344.005,414.985 338.838,413.985 334,411.5C 331.46,406.903 332.293,403.07 336.5,400C 346.161,399.5 355.828,399.334 365.5,399.5C 365.5,393.167 365.5,386.833 365.5,380.5C 355.828,380.666 346.161,380.5 336.5,380C 335.333,378.833 334.167,377.667 333,376.5C 332.333,363.5 332.333,350.5 333,337.5C 333.833,335.333 335.333,333.833 337.5,333C 341.486,332.501 345.486,332.334 349.5,332.5C 349.334,328.486 349.501,324.486 350,320.5C 350.69,318.65 351.856,317.316 353.5,316.5 Z"/></g>
</svg>
