<?xml version="1.0" encoding="UTF-8"?>
<!DOCTYPE svg PUBLIC "-//W3C//DTD SVG 1.1//EN" "http://www.w3.org/Graphics/SVG/1.1/DTD/svg11.dtd">
<svg xmlns="http://www.w3.org/2000/svg" version="1.1" width="512px" height="512px" style="shape-rendering:geometricPrecision; text-rendering:geometricPrecision; image-rendering:optimizeQuality; fill-rule:evenodd; clip-rule:evenodd" xmlns:xlink="http://www.w3.org/1999/xlink">
<g><path style="opacity:1" fill="#000000" d="M 60.5,27.5 C 94.0061,25.8627 114.839,41.196 123,73.5C 125.425,105.724 111.258,126.557 80.5,136C 51.785,140.061 30.9517,129.228 18,103.5C 8.92035,75.0735 16.4203,52.2402 40.5,35C 46.9603,31.5884 53.627,29.0884 60.5,27.5 Z M 62.5,40.5 C 79.9496,39.1443 93.7829,45.4776 104,59.5C 115.784,82.8584 111.284,102.358 90.5,118C 68.3346,128.889 49.5013,124.722 34,105.5C 21.8236,82.3844 25.9903,62.8844 46.5,47C 51.6069,43.9354 56.9402,41.7688 62.5,40.5 Z"/></g>
<g><path style="opacity:1" fill="#000000" d="M 247.5,27.5 C 278.745,25.9309 299.245,39.9309 309,69.5C 313.904,98.8618 303.07,120.028 276.5,133C 252.006,141.418 230.839,136.251 213,117.5C 196.788,94.7386 196.455,71.7386 212,48.5C 221.409,37.2188 233.243,30.2188 247.5,27.5 Z M 248.5,40.5 C 277.487,39.8169 293.82,53.8169 297.5,82.5C 294.51,107.49 280.51,121.49 255.5,124.5C 230.49,121.49 216.49,107.49 213.5,82.5C 214.458,66.7393 221.458,54.5726 234.5,46C 239.159,43.8421 243.825,42.0088 248.5,40.5 Z"/></g>
<g><path style="opacity:1" fill="#000000" d="M 434.5,27.5 C 466.593,26.1078 487.093,40.7745 496,71.5C 499.724,99.8923 488.891,120.392 463.5,133C 430.644,143.275 406.477,133.108 391,102.5C 381.946,71.3014 391.446,47.8014 419.5,32C 424.535,30.1506 429.535,28.6506 434.5,27.5 Z M 435.5,40.5 C 459.762,39.5356 475.595,50.5356 483,73.5C 485.26,103.317 471.593,120.317 442,124.5C 420.274,122.097 406.607,110.43 401,89.5C 399.503,63.8543 411.003,47.521 435.5,40.5 Z"/></g>
<g><path style="opacity:1" fill="#000000" d="M 65.5,45.5 C 72.5,44.3296 76,47.3296 76,54.5C 78.8349,55.9164 81.5015,57.583 84,59.5C 87.5965,63.4106 88.2632,67.744 86,72.5C 80.3581,75.4392 76.1914,73.9392 73.5,68C 68.8167,65.5141 65.4833,66.6808 63.5,71.5C 63.8333,72.1667 64.1667,72.8333 64.5,73.5C 70.6147,75.724 76.6147,78.224 82.5,81C 88.0796,87.5462 88.9129,94.7129 85,102.5C 82.6032,105.4 79.7698,107.733 76.5,109.5C 75.5702,119.214 71.0702,121.547 63,116.5C 62.5034,114.19 62.3367,111.857 62.5,109.5C 54.1492,107.328 50.3158,101.994 51,93.5C 53.2103,90.7104 56.0437,89.877 59.5,91C 61.7107,92.7206 63.7107,94.7206 65.5,97C 69.8675,98.4594 72.8675,97.1261 74.5,93C 68.6098,89.2489 62.2765,86.2489 55.5,84C 49.9308,77.0826 49.0974,69.5826 53,61.5C 55.428,58.4024 58.428,56.069 62,54.5C 61.9134,50.9199 63.0801,47.9199 65.5,45.5 Z"/></g>
<g><path style="opacity:1" fill="#000000" d="M 251.5,45.5 C 259.085,43.7539 262.752,46.7539 262.5,54.5C 268.597,56.9293 272.597,61.2627 274.5,67.5C 273.833,71.5 271.5,73.8333 267.5,74.5C 263.5,71.8333 259.5,69.1667 255.5,66.5C 250.445,67.4453 249.111,69.9453 251.5,74C 257.874,75.6898 263.874,78.1898 269.5,81.5C 275.376,88.435 275.876,95.7684 271,103.5C 268.781,106.361 265.947,108.361 262.5,109.5C 261.686,111.766 261.186,114.1 261,116.5C 257.333,120.5 253.667,120.5 250,116.5C 249.764,114.236 249.264,112.069 248.5,110C 241.83,107.832 237.83,103.332 236.5,96.5C 237.869,91.312 241.203,89.4787 246.5,91C 248.213,92.3782 249.547,94.0448 250.5,96C 255.031,98.5819 258.698,97.7486 261.5,93.5C 261.023,92.5224 260.357,91.6891 259.5,91C 253.672,89.0574 248.005,86.724 242.5,84C 233.359,71.7275 235.526,61.8942 249,54.5C 249.057,51.1888 249.89,48.1888 251.5,45.5 Z"/></g>
<g><path style="opacity:1" fill="#000000" d="M 438.5,45.5 C 445.546,44.38 449.046,47.38 449,54.5C 457.465,57.1029 461.132,62.7696 460,71.5C 454.254,75.9034 449.754,74.7368 446.5,68C 442.12,65.5942 438.787,66.5942 436.5,71C 436.759,72.2613 437.426,73.2613 438.5,74C 445.694,75.8369 452.194,79.0036 458,83.5C 463.44,95.0123 460.607,103.679 449.5,109.5C 449.389,118.045 445.389,120.878 437.5,118C 436.133,115.328 435.133,112.495 434.5,109.5C 428.279,107.283 424.612,102.949 423.5,96.5C 424.578,90.9055 427.912,89.0722 433.5,91C 435.226,94.7391 438.06,96.9058 442,97.5C 446.745,97.4366 448.245,95.2699 446.5,91C 441.167,89 435.833,87 430.5,85C 421.605,76.2894 421.271,67.2894 429.5,58C 431.217,56.4412 433.217,55.6079 435.5,55.5C 435.022,51.6625 436.022,48.3291 438.5,45.5 Z"/></g>
<g><path style="opacity:1" fill="#000000" d="M 119.5,125.5 C 122.32,125.248 124.986,125.748 127.5,127C 153,152.5 178.5,178 204,203.5C 206.99,211.683 204.156,215.183 195.5,214C 169.333,187.833 143.167,161.667 117,135.5C 115.861,131.579 116.695,128.246 119.5,125.5 Z"/></g>
<g><path style="opacity:1" fill="#000000" d="M 387.5,126.5 C 395.458,127.161 397.625,131.161 394,138.5C 368.5,164 343,189.5 317.5,215C 313.527,218.407 309.694,218.24 306,214.5C 305.333,212.167 305.333,209.833 306,207.5C 333.062,180.271 360.228,153.271 387.5,126.5 Z"/></g>
<g><path style="opacity:1" fill="#000000" d="M 253.5,147.5 C 255.857,147.337 258.19,147.503 260.5,148C 261.701,148.903 262.535,150.069 263,151.5C 263.667,164.167 263.667,176.833 263,189.5C 259.399,194.321 255.399,194.654 251,190.5C 250.333,177.167 250.333,163.833 251,150.5C 251.698,149.309 252.531,148.309 253.5,147.5 Z"/></g>
<g><path style="opacity:1" fill="#000000" d="M 250.5,198.5 C 277.416,197.607 296.582,209.273 308,233.5C 315.324,255.553 311.157,275.053 295.5,292C 288.115,292.947 285.281,289.78 287,282.5C 302.716,262.258 302.216,242.424 285.5,223C 267.635,208.579 249.302,207.912 230.5,221C 215.768,234.426 211.602,250.593 218,269.5C 220.928,275.031 224.095,280.364 227.5,285.5C 225.899,291.634 222.232,293.467 216.5,291C 197.724,267.487 196.89,243.32 214,218.5C 223.739,207.23 235.906,200.563 250.5,198.5 Z"/></g>
<g><path style="opacity:1" fill="#000000" d="M 249.5,247.5 C 261.682,245.047 270.849,249.047 277,259.5C 278.461,278.098 278.961,296.765 278.5,315.5C 292.611,312.083 302.944,316.749 309.5,329.5C 322.019,325.591 331.686,329.258 338.5,340.5C 350.462,335.391 360.295,338.058 368,348.5C 368.667,350.5 369.333,352.5 370,354.5C 370.667,385.167 370.667,415.833 370,446.5C 365.128,463.704 353.961,474.537 336.5,479C 308.566,486.825 281.566,484.491 255.5,472C 250.077,468.581 245.244,464.415 241,459.5C 221.333,433.5 201.667,407.5 182,381.5C 177.903,367.194 182.737,357.361 196.5,352C 202.362,351.048 208.028,351.715 213.5,354C 220.636,360.135 227.469,366.635 234,373.5C 234.333,337.167 234.667,300.833 235,264.5C 235.856,260.456 237.522,256.789 240,253.5C 243.147,251.35 246.313,249.35 249.5,247.5 Z M 252.5,260.5 C 255.187,260.336 257.854,260.503 260.5,261C 262.667,261.833 264.167,263.333 265,265.5C 265.333,307.167 265.667,348.833 266,390.5C 270,395.833 274,395.833 278,390.5C 278.333,371.5 278.667,352.5 279,333.5C 282.04,327.632 286.54,326.132 292.5,329C 294.487,330.319 295.654,332.152 296,334.5C 296.333,353.167 296.667,371.833 297,390.5C 301.273,395.738 305.273,395.404 309,389.5C 309.333,375.167 309.667,360.833 310,346.5C 315.333,338.5 320.667,338.5 326,346.5C 326.333,360.5 326.667,374.5 327,388.5C 329.737,394.635 333.737,395.635 339,391.5C 339.085,379.443 339.751,367.443 341,355.5C 346.785,348.651 352.119,348.984 357,356.5C 357.667,385.833 357.667,415.167 357,444.5C 353.526,454.641 346.693,461.474 336.5,465C 310.774,473.634 285.774,471.968 261.5,460C 257.367,456.869 253.534,453.369 250,449.5C 231.333,424.833 212.667,400.167 194,375.5C 193.656,367.513 197.489,364.013 205.5,365C 216.471,374.97 227.137,385.303 237.5,396C 241.058,398.154 244.225,397.654 247,394.5C 247.333,351.833 247.667,309.167 248,266.5C 248.599,263.746 250.099,261.746 252.5,260.5 Z"/></g>
</svg>
