<?xml version="1.0" encoding="UTF-8"?>
<!DOCTYPE svg PUBLIC "-//W3C//DTD SVG 1.1//EN" "http://www.w3.org/Graphics/SVG/1.1/DTD/svg11.dtd">
<svg xmlns="http://www.w3.org/2000/svg" version="1.1" width="512px" height="512px" style="shape-rendering:geometricPrecision; text-rendering:geometricPrecision; image-rendering:optimizeQuality; fill-rule:evenodd; clip-rule:evenodd" xmlns:xlink="http://www.w3.org/1999/xlink">
<g><path style="opacity:1" fill="#000000" d="M 233.5,-0.5 C 248.5,-0.5 263.5,-0.5 278.5,-0.5C 298.494,1.74481 318.161,6.07814 337.5,12.5C 341.6,8.11549 346.6,5.28216 352.5,4C 398.5,3.33333 444.5,3.33333 490.5,4C 500.92,6.92273 507.92,13.4227 511.5,23.5C 511.5,48.1667 511.5,72.8333 511.5,97.5C 504.181,114.269 491.181,121.435 472.5,119C 494.386,153.825 507.386,191.659 511.5,232.5C 511.5,247.833 511.5,263.167 511.5,278.5C 507.482,318.053 495.149,354.886 474.5,389C 492.305,386.558 504.638,393.391 511.5,409.5C 511.5,434.167 511.5,458.833 511.5,483.5C 508.017,493.149 501.35,499.649 491.5,503C 444.5,503.667 397.5,503.667 350.5,503C 346.637,501.819 343.137,499.986 340,497.5C 319.961,504.672 299.461,509.338 278.5,511.5C 263.167,511.5 247.833,511.5 232.5,511.5C 143.853,500.61 76.6868,456.943 31,380.5C 13.7076,348.465 3.20759,314.465 -0.5,278.5C -0.5,263.167 -0.5,247.833 -0.5,232.5C 2.59891,203.446 10.0989,175.446 22,148.5C 24.2029,143.256 27.0362,138.422 30.5,134C 41.292,130.476 46.792,134.309 47,145.5C 40.8012,158.395 35.3012,171.561 30.5,185C 35.1915,196.739 39.6915,208.572 44,220.5C 50.8333,226.667 57.6667,232.833 64.5,239C 67.1059,240.938 68.9392,243.438 70,246.5C 71.7381,268.808 72.4048,291.141 72,313.5C 64.7767,332.28 57.2767,350.946 49.5,369.5C 74.5093,413.343 109.676,446.343 155,468.5C 150.244,448.647 145.078,428.814 139.5,409C 145.28,392.441 151.614,376.108 158.5,360C 149.833,359.333 141.167,359.333 132.5,360C 122.16,363.781 111.66,366.947 101,369.5C 90.9915,367.826 87.9915,362.159 92,352.5C 95.6667,344.5 99.3333,336.5 103,328.5C 103.333,308.167 103.667,287.833 104,267.5C 106.317,256.517 112.817,249.351 123.5,246C 133.744,245.821 143.91,245.321 154,244.5C 156.45,235.586 158.117,226.586 159,217.5C 150.333,208.833 141.667,200.167 133,191.5C 131.517,188.298 131.183,184.964 132,181.5C 143.969,157.728 155.802,133.895 167.5,110C 154.049,92.7152 140.049,75.8819 125.5,59.5C 115.076,66.4229 105.076,73.9229 95.5,82C 84.4811,83.3131 79.9811,78.4797 82,67.5C 100.901,49.114 122.401,34.2807 146.5,23C 174.31,10.2998 203.31,2.46647 233.5,-0.5 Z M 234.5,20.5 C 267.197,18.1137 299.031,22.1137 330,32.5C 330.667,41.8333 330.667,51.1667 330,60.5C 313.255,72.7891 296.422,84.9558 279.5,97C 277.959,98.5793 276.792,100.413 276,102.5C 276.387,116.423 277.554,130.256 279.5,144C 270.167,147.333 260.833,150.667 251.5,154C 249.622,155.543 248.122,157.376 247,159.5C 246.256,175.189 246.589,190.856 248,206.5C 248.785,208.286 249.951,209.786 251.5,211C 262.833,218 274.167,225 285.5,232C 290.833,235.333 296.167,235.333 301.5,232C 311.648,223.095 321.982,214.429 332.5,206C 364.794,203.316 397.127,201.649 429.5,201C 449.921,211.766 470.088,222.932 490,234.5C 493.991,284.883 483.325,331.883 458,375.5C 454.542,362.547 451.209,349.547 448,336.5C 431.333,315.167 414.667,293.833 398,272.5C 396.457,270.622 394.624,269.122 392.5,268C 358.857,266.143 325.191,265.477 291.5,266C 289.359,267.308 287.359,268.808 285.5,270.5C 283.322,258.158 276.322,249.992 264.5,246C 234.828,245.833 205.161,245.333 175.5,244.5C 178.947,233.39 180.781,222.057 181,210.5C 172.487,201.321 163.987,192.155 155.5,183C 166.864,159.772 178.364,136.605 190,113.5C 192.336,107.846 191.336,102.846 187,98.5C 172.833,81.6667 158.667,64.8333 144.5,48C 172.915,33.2359 202.915,24.0692 234.5,20.5 Z M 355.5,24.5 C 399.918,24.0106 444.252,24.5106 488.5,26C 489.126,26.7504 489.626,27.5838 490,28.5C 490.667,50.1667 490.667,71.8333 490,93.5C 488.681,95.4875 486.848,96.6541 484.5,97C 438.721,97.0307 393.054,97.6973 347.5,99C 349.068,96.6959 350.235,94.1959 351,91.5C 351.333,70.5 351.667,49.5 352,28.5C 353.376,27.2949 354.542,25.9616 355.5,24.5 Z M 328.5,87.5 C 329.043,87.56 329.376,87.8933 329.5,88.5C 324.503,97.9846 320.503,107.818 317.5,118C 318.214,125.871 322.547,129.204 330.5,128C 339.772,124.798 349.105,121.798 358.5,119C 388.172,118.167 417.839,118.333 447.5,119.5C 465.848,145.204 478.515,173.537 485.5,204.5C 485.167,205.167 484.833,205.833 484.5,206.5C 470.833,199 457.167,191.5 443.5,184C 439.148,181.323 434.482,179.489 429.5,178.5C 395.185,180.874 360.852,183.041 326.5,185C 314.732,192.98 303.566,201.814 293,211.5C 285.418,206.291 277.584,201.457 269.5,197C 267.348,188.29 267.014,179.456 268.5,170.5C 277.128,167.235 285.795,164.068 294.5,161C 297,159.833 298.833,158 300,155.5C 299.634,140.48 298.968,125.48 298,110.5C 308.351,102.97 318.517,95.3033 328.5,87.5 Z M 21.5,225.5 C 23.6979,228.187 25.6979,231.187 27.5,234.5C 34.5162,241.35 41.6828,248.017 49,254.5C 50.7087,272.466 51.3753,290.466 51,308.5C 46.5291,320.246 41.8624,331.913 37,343.5C 22.1626,305.469 16.9959,266.135 21.5,225.5 Z M 131.5,265.5 C 174.547,265.022 217.547,265.522 260.5,267C 262.487,268.319 263.654,270.152 264,272.5C 264.954,293.551 264.621,314.551 263,335.5C 262.097,336.701 260.931,337.535 259.5,338C 216.167,338.333 172.833,338.667 129.5,339C 126.455,339.914 123.455,340.581 120.5,341C 122.068,338.696 123.235,336.196 124,333.5C 124.333,312.5 124.667,291.5 125,270.5C 126.563,267.977 128.73,266.31 131.5,265.5 Z M 299.5,286.5 C 327.547,286.464 355.547,287.298 383.5,289C 398.667,308.167 413.833,327.333 429,346.5C 432.616,360.75 435.783,375.083 438.5,389.5C 412.165,389.667 385.831,389.5 359.5,389C 350.5,386 341.5,383 332.5,380C 319.681,378.496 315.181,383.996 319,396.5C 322.667,404.5 326.333,412.5 330,420.5C 330.667,435.167 330.667,449.833 330,464.5C 321.276,442.719 312.276,421.052 303,399.5C 301.833,398.333 300.667,397.167 299.5,396C 285.458,389.597 271.458,383.097 257.5,376.5C 256.505,370.872 256.171,365.206 256.5,359.5C 273.133,358.702 282.633,350.035 285,333.5C 285.333,321.833 285.667,310.167 286,298.5C 290.694,294.635 295.194,290.635 299.5,286.5 Z M 181.5,359.5 C 199.5,359.5 217.5,359.5 235.5,359.5C 235.546,366.184 235.213,372.851 234.5,379.5C 234.244,383.123 235.077,386.456 237,389.5C 253.057,398.028 269.39,406.028 286,413.5C 295.5,436.5 305,459.5 314.5,482.5C 305.179,485.866 295.512,488.033 285.5,489C 249.801,493.551 214.968,490.051 181,478.5C 174.422,455.689 167.922,432.856 161.5,410C 168.044,393.085 174.71,376.252 181.5,359.5 Z M 347.5,408.5 C 347.56,407.957 347.893,407.624 348.5,407.5C 351.07,408.634 353.736,409.468 356.5,410C 399.833,410.333 443.167,410.667 486.5,411C 488.333,411.5 489.5,412.667 490,414.5C 490.667,436.167 490.667,457.833 490,479.5C 489.167,480.333 488.333,481.167 487.5,482C 443.5,482.667 399.5,482.667 355.5,482C 353.667,481.5 352.5,480.333 352,478.5C 351.667,457.5 351.333,436.5 351,415.5C 350.102,412.931 348.935,410.598 347.5,408.5 Z"/></g>
<g><path style="opacity:1" fill="#000000" d="M 377.5,49.5 C 388.654,49.4792 392.82,54.8126 390,65.5C 383.264,72.3458 376.93,72.0125 371,64.5C 368.865,57.4498 371.032,52.4498 377.5,49.5 Z"/></g>
<g><path style="opacity:1" fill="#000000" d="M 417.5,49.5 C 428.654,49.4792 432.82,54.8126 430,65.5C 425.261,71.082 419.761,71.9154 413.5,68C 408.612,60.3228 409.946,54.1562 417.5,49.5 Z"/></g>
<g><path style="opacity:1" fill="#000000" d="M 457.5,49.5 C 467.317,49.1488 471.817,53.8155 471,63.5C 466.733,70.8755 460.899,72.3755 453.5,68C 448.612,60.3228 449.946,54.1562 457.5,49.5 Z"/></g>
<g><path style="opacity:1" fill="#000000" d="M 58.5,94.5 C 70.4749,95.6049 73.9749,101.605 69,112.5C 65.3186,115.36 61.1519,116.193 56.5,115C 50.9752,112.081 49.1419,107.581 51,101.5C 52.7668,98.228 55.2668,95.8947 58.5,94.5 Z"/></g>
<g><path style="opacity:1" fill="#000000" d="M 150.5,291.5 C 161.439,289.94 166.272,294.606 165,305.5C 159.468,313.874 153.134,314.54 146,307.5C 143.159,300.871 144.659,295.538 150.5,291.5 Z"/></g>
<g><path style="opacity:1" fill="#000000" d="M 190.5,291.5 C 201.471,289.972 206.304,294.638 205,305.5C 199.468,313.874 193.134,314.54 186,307.5C 183.172,300.851 184.672,295.518 190.5,291.5 Z"/></g>
<g><path style="opacity:1" fill="#000000" d="M 230.5,291.5 C 241.49,289.992 246.324,294.658 245,305.5C 239.468,313.874 233.134,314.54 226,307.5C 223.172,300.851 224.672,295.518 230.5,291.5 Z"/></g>
<g><path style="opacity:1" fill="#000000" d="M 379.5,438.5 C 390.318,440.469 393.485,446.469 389,456.5C 385.319,459.36 381.152,460.193 376.5,459C 370.458,455.252 368.958,450.085 372,443.5C 373.913,440.72 376.413,439.053 379.5,438.5 Z"/></g>
<g><path style="opacity:1" fill="#000000" d="M 419.5,438.5 C 430.318,440.469 433.485,446.469 429,456.5C 425.319,459.36 421.152,460.193 416.5,459C 410.458,455.252 408.958,450.085 412,443.5C 413.913,440.72 416.413,439.053 419.5,438.5 Z"/></g>
<g><path style="opacity:1" fill="#000000" d="M 459.5,438.5 C 470.695,440.249 473.862,446.249 469,456.5C 465.319,459.36 461.152,460.193 456.5,459C 450.458,455.252 448.958,450.085 452,443.5C 453.913,440.72 456.413,439.053 459.5,438.5 Z"/></g>
</svg>
