<?xml version="1.0" encoding="UTF-8"?>
<!DOCTYPE svg PUBLIC "-//W3C//DTD SVG 1.1//EN" "http://www.w3.org/Graphics/SVG/1.1/DTD/svg11.dtd">
<svg xmlns="http://www.w3.org/2000/svg" version="1.1" width="512px" height="512px" style="shape-rendering:geometricPrecision; text-rendering:geometricPrecision; image-rendering:optimizeQuality; fill-rule:evenodd; clip-rule:evenodd" xmlns:xlink="http://www.w3.org/1999/xlink">
<g><path style="opacity:1" fill="#000000" d="M 251.5,-0.5 C 254.833,-0.5 258.167,-0.5 261.5,-0.5C 266.246,3.34233 267.746,8.34233 266,14.5C 262.345,19.2745 257.512,20.7745 251.5,19C 246.725,15.3449 245.225,10.5116 247,4.5C 248.366,2.63834 249.866,0.971672 251.5,-0.5 Z"/></g>
<g><path style="opacity:1" fill="#000000" d="M 336.5,511.5 C 333.167,511.5 329.833,511.5 326.5,511.5C 325.207,509.704 323.707,508.037 322,506.5C 300.367,468.038 278.533,429.705 256.5,391.5C 234.467,429.705 212.633,468.038 191,506.5C 189.293,508.037 187.793,509.704 186.5,511.5C 183.167,511.5 179.833,511.5 176.5,511.5C 174.693,510.164 173.193,508.497 172,506.5C 164.06,483.347 155.727,460.347 147,437.5C 125.925,442.249 104.758,446.749 83.5,451C 69.7618,453.264 64.9285,447.764 69,434.5C 88.9167,400.246 108.417,365.746 127.5,331C 74.4906,278.16 55.9906,214.993 72,141.5C 89.2841,79.8818 127.451,36.7151 186.5,12C 194.69,8.99202 203.023,6.49202 211.5,4.5C 221.063,6.01368 224.229,11.347 221,20.5C 219.833,21.6667 218.667,22.8333 217.5,24C 146.531,44.6338 103.698,91.1338 89,163.5C 81.0189,237.357 107.852,294.523 169.5,335C 227.5,367.667 285.5,367.667 343.5,335C 402.415,296.67 429.582,242.17 425,171.5C 413.103,94.9328 369.936,45.7661 295.5,24C 288.833,18 288.833,12 295.5,6C 298.406,4.68152 301.406,4.34819 304.5,5C 366.118,22.2841 409.285,60.4508 434,119.5C 461.012,200.133 444.846,270.633 385.5,331C 404.583,365.746 424.083,400.246 444,434.5C 448.072,447.764 443.238,453.264 429.5,451C 408.242,446.749 387.075,442.249 366,437.5C 357.388,460.392 349.055,483.392 341,506.5C 339.634,508.362 338.134,510.028 336.5,511.5 Z M 255.5,59.5 C 311.655,62.3127 351.821,88.9794 376,139.5C 393.838,187.639 387.171,231.972 356,272.5C 314.152,317.337 264.319,329.503 206.5,309C 156.015,285.212 129.682,245.379 127.5,189.5C 129.682,133.621 156.015,93.7876 206.5,70C 222.406,63.854 238.739,60.354 255.5,59.5 Z M 255.5,127.5 C 256.376,127.369 257.043,127.702 257.5,128.5C 263.197,140.731 269.53,152.564 276.5,164C 278.087,164.862 279.754,165.529 281.5,166C 294.168,168 306.835,170 319.5,172C 309.248,181.916 299.415,192.083 290,202.5C 290.576,216.465 292.41,230.298 295.5,244C 295.167,244.5 294.833,245 294.5,245.5C 282.309,238.403 269.642,232.403 256.5,227.5C 243.358,232.403 230.691,238.403 218.5,245.5C 218.167,245 217.833,244.5 217.5,244C 220.59,230.298 222.424,216.465 223,202.5C 213.585,192.083 203.752,181.916 193.5,172C 206.165,170 218.832,168 231.5,166C 234.548,165.394 237.048,163.894 239,161.5C 244.784,150.267 250.284,138.934 255.5,127.5 Z M 144.5,344.5 C 172.922,363.871 204.255,375.704 238.5,380C 219.954,411.589 201.787,443.423 184,475.5C 177.074,457.305 170.408,438.971 164,420.5C 159.945,415.684 154.778,414.184 148.5,416C 131.795,419.608 115.128,422.941 98.5,426C 113.972,398.887 129.305,371.72 144.5,344.5 Z M 366.5,344.5 C 367.496,344.414 368.329,344.748 369,345.5C 384.04,372.414 399.207,399.248 414.5,426C 397.872,422.941 381.205,419.608 364.5,416C 358.222,414.184 353.055,415.684 349,420.5C 342.592,438.971 335.926,457.305 329,475.5C 311.213,443.423 293.046,411.589 274.5,380C 301.66,376.503 327.327,368.169 351.5,355C 356.916,351.97 361.916,348.47 366.5,344.5 Z"/></g>
<g><path style="opacity:1" fill="#000000" d="M 239.5,39.5 C 301.893,35.2822 350.393,58.9488 385,110.5C 405.867,146.086 411.867,184.086 403,224.5C 389.179,275.656 357.679,311.156 308.5,331C 243.165,351.21 187.332,336.377 141,286.5C 109.937,247.546 99.6038,203.546 110,154.5C 120.974,111.373 145.808,78.8732 184.5,57C 201.925,47.9017 220.258,42.0684 239.5,39.5 Z M 255.5,59.5 C 238.739,60.354 222.406,63.854 206.5,70C 156.015,93.7876 129.682,133.621 127.5,189.5C 129.682,245.379 156.015,285.212 206.5,309C 264.319,329.503 314.152,317.337 356,272.5C 387.171,231.972 393.838,187.639 376,139.5C 351.821,88.9794 311.655,62.3127 255.5,59.5 Z M 255.5,127.5 C 250.284,138.934 244.784,150.267 239,161.5C 237.048,163.894 234.548,165.394 231.5,166C 218.832,168 206.165,170 193.5,172C 203.752,181.916 213.585,192.083 223,202.5C 222.424,216.465 220.59,230.298 217.5,244C 217.833,244.5 218.167,245 218.5,245.5C 230.691,238.403 243.358,232.403 256.5,227.5C 269.642,232.403 282.309,238.403 294.5,245.5C 294.833,245 295.167,244.5 295.5,244C 292.41,230.298 290.576,216.465 290,202.5C 299.415,192.083 309.248,181.916 319.5,172C 306.835,170 294.168,168 281.5,166C 279.754,165.529 278.087,164.862 276.5,164C 269.53,152.564 263.197,140.731 257.5,128.5C 257.043,127.702 256.376,127.369 255.5,127.5 Z"/></g>
<g><path style="opacity:1" fill="#000000" d="M 254.5,91.5 C 258.505,91.5565 262.005,92.8899 265,95.5C 273.372,112.411 281.872,129.244 290.5,146C 309.996,148.594 329.329,151.927 348.5,156C 352.714,160.2 353.548,165.034 351,170.5C 338,183.5 325,196.5 312,209.5C 314.003,227.691 316.503,245.858 319.5,264C 319.275,273.219 314.608,276.886 305.5,275C 289.167,266.5 272.833,258 256.5,249.5C 240.167,258 223.833,266.5 207.5,275C 198.392,276.886 193.725,273.219 193.5,264C 196.497,245.858 198.997,227.691 201,209.5C 187.304,196.138 173.971,182.471 161,168.5C 159.142,162.419 160.975,157.919 166.5,155C 185.127,151.784 203.794,148.784 222.5,146C 231.128,129.244 239.628,112.411 248,95.5C 250.013,93.7518 252.18,92.4185 254.5,91.5 Z M 255.5,127.5 C 250.284,138.934 244.784,150.267 239,161.5C 237.048,163.894 234.548,165.394 231.5,166C 218.832,168 206.165,170 193.5,172C 203.752,181.916 213.585,192.083 223,202.5C 222.424,216.465 220.59,230.298 217.5,244C 217.833,244.5 218.167,245 218.5,245.5C 230.691,238.403 243.358,232.403 256.5,227.5C 269.642,232.403 282.309,238.403 294.5,245.5C 294.833,245 295.167,244.5 295.5,244C 292.41,230.298 290.576,216.465 290,202.5C 299.415,192.083 309.248,181.916 319.5,172C 306.835,170 294.168,168 281.5,166C 279.754,165.529 278.087,164.862 276.5,164C 269.53,152.564 263.197,140.731 257.5,128.5C 257.043,127.702 256.376,127.369 255.5,127.5 Z"/></g>
</svg>
