<?xml version="1.0" encoding="UTF-8"?>
<!DOCTYPE svg PUBLIC "-//W3C//DTD SVG 1.1//EN" "http://www.w3.org/Graphics/SVG/1.1/DTD/svg11.dtd">
<svg xmlns="http://www.w3.org/2000/svg" version="1.1" width="512px" height="512px" style="shape-rendering:geometricPrecision; text-rendering:geometricPrecision; image-rendering:optimizeQuality; fill-rule:evenodd; clip-rule:evenodd" xmlns:xlink="http://www.w3.org/1999/xlink">
<g><path style="opacity:1" fill="#000000" d="M 511.5,141.5 C 511.5,209.5 511.5,277.5 511.5,345.5C 508.932,350.564 504.932,354.064 499.5,356C 468.168,356.5 436.835,356.667 405.5,356.5C 406.406,391.877 399.239,425.544 384,457.5C 376.017,474.805 367.017,491.471 357,507.5C 352.667,511.5 348.333,511.5 344,507.5C 342.543,504.634 342.21,501.634 343,498.5C 358.877,473.411 371.543,446.745 381,418.5C 387.578,398.29 390.078,377.623 388.5,356.5C 355.833,356.5 323.167,356.5 290.5,356.5C 292.879,373.807 298.712,389.807 308,404.5C 310.039,406.874 312.372,408.874 315,410.5C 318.033,420.134 314.533,424.301 304.5,423C 295.173,416.22 288.34,407.387 284,396.5C 276.012,375.242 271.679,353.242 271,330.5C 270.126,307.468 270.626,284.468 272.5,261.5C 270.636,245.136 261.469,236.469 245,235.5C 228.756,236.412 219.589,244.912 217.5,261C 219.919,283.446 221.586,305.946 222.5,328.5C 223.065,350.662 219.232,371.995 211,392.5C 205.656,402.526 199.323,411.859 192,420.5C 183.76,436.126 179.594,452.792 179.5,470.5C 180.054,481.267 181.388,491.933 183.5,502.5C 183.167,507.5 180.5,510.167 175.5,510.5C 173.074,510.596 170.907,509.93 169,508.5C 164.878,496.194 163.045,483.527 163.5,470.5C 162.461,443.784 170.294,420.117 187,399.5C 196.403,386.689 201.903,372.356 203.5,356.5C 172.832,356.667 142.165,356.5 111.5,356C 105.06,353.227 101.226,348.394 100,341.5C 99.5,312.835 99.3334,284.169 99.5,255.5C 72.0972,247.978 44.7639,240.144 17.5,232C 8.42896,227.768 2.42896,220.935 -0.5,211.5C -0.5,206.167 -0.5,200.833 -0.5,195.5C 16.4638,137.329 33.2971,78.996 50,20.5C 57.5174,4.65634 70.0174,-1.84366 87.5,1C 181.559,27.7973 275.559,54.7973 369.5,82C 383.704,89.5763 389.538,101.41 387,117.5C 386.143,121.596 384.976,125.596 383.5,129.5C 422.496,130.333 461.496,130.833 500.5,131C 505.355,133.357 509.021,136.857 511.5,141.5 Z M 76.5,16.5 C 171.768,42.2349 266.768,69.0682 361.5,97C 367.514,99.6748 370.847,104.341 371.5,111C 369.865,118.382 367.699,125.549 365,132.5C 263.707,102.792 162.207,73.7915 60.5,45.5C 62.044,37.9924 64.2106,30.6591 67,23.5C 69.529,20.1151 72.6956,17.7818 76.5,16.5 Z M 55.5,60.5 C 157.023,89.9645 258.69,118.964 360.5,147.5C 357.433,161.77 353.433,175.77 348.5,189.5C 246.884,160.179 145.217,131.012 43.5,102C 47.8866,88.2886 51.8866,74.4552 55.5,60.5 Z M 39.5,118.5 C 140.937,147.09 242.271,176.09 343.5,205.5C 343.833,206 344.167,206.5 344.5,207C 336.397,235.308 327.897,263.475 319,291.5C 315.965,295.036 312.132,297.036 307.5,297.5C 301.038,296.301 294.704,294.634 288.5,292.5C 288.119,279.185 287.953,265.852 288,252.5C 279.573,226.524 261.739,215.691 234.5,220C 210.919,227.079 199.585,242.913 200.5,267.5C 140.61,250.703 80.9433,233.203 21.5,215C 16.6884,210.899 14.8551,205.732 16,199.5C 23.6853,172.42 31.5186,145.42 39.5,118.5 Z M 378.5,146.5 C 399.833,146.5 421.167,146.5 442.5,146.5C 445.991,170.636 458.991,187.469 481.5,197C 486.035,198.74 490.702,199.906 495.5,200.5C 495.5,229.167 495.5,257.833 495.5,286.5C 474.259,290.236 458.425,301.57 448,320.5C 445.042,326.873 443.208,333.539 442.5,340.5C 391.167,340.5 339.833,340.5 288.5,340.5C 287.358,330.151 287.025,319.817 287.5,309.5C 301.373,315.586 314.706,314.753 327.5,307C 330.719,303.448 333.552,299.615 336,295.5C 350.637,245.949 364.804,196.282 378.5,146.5 Z M 459.5,146.5 C 471.5,146.5 483.5,146.5 495.5,146.5C 495.5,158.833 495.5,171.167 495.5,183.5C 480.058,179.9 468.892,170.9 462,156.5C 460.648,153.28 459.814,149.947 459.5,146.5 Z M 412.5,228.5 C 425.861,227.914 432.028,234.247 431,247.5C 423.641,260.338 414.641,261.672 404,251.5C 399.609,241.172 402.443,233.506 412.5,228.5 Z M 116.5,260.5 C 145.154,268.829 173.821,277.162 202.5,285.5C 205.053,303.733 206.053,322.067 205.5,340.5C 193.833,340.5 182.167,340.5 170.5,340.5C 166.093,313.926 151.093,296.426 125.5,288C 122.568,287.047 119.568,286.547 116.5,286.5C 116.5,277.833 116.5,269.167 116.5,260.5 Z M 116.5,303.5 C 131.031,305.856 141.864,313.523 149,326.5C 151.368,330.9 152.868,335.566 153.5,340.5C 141.167,340.5 128.833,340.5 116.5,340.5C 116.5,328.167 116.5,315.833 116.5,303.5 Z M 492.5,303.5 C 493.5,303.5 494.5,303.5 495.5,303.5C 495.667,315.505 495.5,327.505 495,339.5C 483.247,340.488 471.414,340.821 459.5,340.5C 463.371,321.73 474.371,309.396 492.5,303.5 Z"/></g>
<g><path style="opacity:1" fill="#000000" d="M 55.5,168.5 C 89.6203,177.483 123.62,186.983 157.5,197C 164.187,200.633 165.187,205.466 160.5,211.5C 158.941,212.447 157.274,213.113 155.5,213.5C 120.247,204.246 85.4137,193.912 51,182.5C 47.9967,176.246 49.4967,171.58 55.5,168.5 Z"/></g>
<g><path style="opacity:1" fill="#000000" d="M 415.5,211.5 C 435.255,213.422 446.255,224.255 448.5,244C 444.885,266.947 431.552,276.947 408.5,274C 390.591,267.36 383.091,254.527 386,235.5C 390.669,220.985 400.502,212.985 415.5,211.5 Z M 412.5,228.5 C 402.443,233.506 399.609,241.172 404,251.5C 414.641,261.672 423.641,260.338 431,247.5C 432.028,234.247 425.861,227.914 412.5,228.5 Z"/></g>
</svg>
