<?xml version="1.0" encoding="UTF-8"?>
<!DOCTYPE svg PUBLIC "-//W3C//DTD SVG 1.1//EN" "http://www.w3.org/Graphics/SVG/1.1/DTD/svg11.dtd">
<svg xmlns="http://www.w3.org/2000/svg" version="1.1" width="512px" height="512px" style="shape-rendering:geometricPrecision; text-rendering:geometricPrecision; image-rendering:optimizeQuality; fill-rule:evenodd; clip-rule:evenodd" xmlns:xlink="http://www.w3.org/1999/xlink">
<g><path style="opacity:1" fill="#000000" d="M 511.5,285.5 C 511.5,288.833 511.5,292.167 511.5,295.5C 453.7,356.803 396.033,418.303 338.5,480C 334.361,482.856 330.028,483.19 325.5,481C 291.8,445.635 258.467,409.968 225.5,374C 155.745,390.691 95.578,373.858 45,323.5C 19.8016,294.767 4.63492,261.434 -0.5,223.5C -0.5,210.833 -0.5,198.167 -0.5,185.5C 10.5779,112.247 50.9113,62.7473 120.5,37C 169.166,22.2666 215.833,26.9333 260.5,51C 309.5,51.3333 358.5,51.6667 407.5,52C 410.573,52.7386 412.74,54.5719 414,57.5C 414.667,73.8333 414.667,90.1667 414,106.5C 410.179,112.393 405.012,113.893 398.5,111C 396.106,109.048 394.606,106.548 394,103.5C 393.5,93.172 393.334,82.8387 393.5,72.5C 359.498,72.3333 325.498,72.5 291.5,73C 338.729,117.011 357.562,171.177 348,235.5C 335.494,295.523 301.661,338.856 246.5,365.5C 274.683,395.182 302.683,425.016 330.5,455C 331.167,455.667 331.833,455.667 332.5,455C 380.5,403.667 428.5,352.333 476.5,301C 451.167,300.667 425.833,300.333 400.5,300C 398.376,298.878 396.543,297.378 395,295.5C 393.353,260.227 393.02,224.894 394,189.5C 397.161,181.676 402.661,179.509 410.5,183C 412.049,184.214 413.215,185.714 414,187.5C 414.5,218.165 414.667,248.832 414.5,279.5C 444.169,279.333 473.835,279.5 503.5,280C 507.109,280.625 509.776,282.458 511.5,285.5 Z M 163.5,49.5 C 235.781,48.7049 287.281,80.7049 318,145.5C 339.204,203.268 330.871,256.268 293,304.5C 242.888,357.569 183.388,371.735 114.5,347C 68.9665,326.129 39.1331,291.629 25,243.5C 11.3228,179.867 28.8228,126.7 77.5,84C 102.841,64.165 131.508,52.665 163.5,49.5 Z M 166.5,89.5 C 218.892,88.9309 256.726,111.931 280,158.5C 297.402,204.087 290.402,245.421 259,282.5C 222.782,318.012 180.616,327.512 132.5,311C 81.3803,287.291 57.547,247.124 61,190.5C 69.0673,141.763 96.5673,109.596 143.5,94C 151.223,92.0502 158.889,90.5502 166.5,89.5 Z M 125.5,149.5 C 135.859,149.014 139.692,153.681 137,163.5C 130.947,170.153 125.28,169.819 120,162.5C 118.571,156.7 120.404,152.367 125.5,149.5 Z M 218.5,240.5 C 229.097,241.574 232.264,246.907 228,256.5C 217.072,262.038 211.739,258.705 212,246.5C 213.494,243.686 215.66,241.686 218.5,240.5 Z"/></g>
<g><path style="opacity:1" fill="#000000" d="M 165.5,68.5 C 224.906,67.437 268.739,92.7703 297,144.5C 320.565,199.782 313.232,250.448 275,296.5C 232.343,338.435 182.51,349.935 125.5,331C 76.709,309.939 48.209,273.106 40,220.5C 35.8101,161.042 58.9768,115.875 109.5,85C 127.196,75.748 145.863,70.248 165.5,68.5 Z M 166.5,89.5 C 158.889,90.5502 151.223,92.0502 143.5,94C 96.5673,109.596 69.0673,141.763 61,190.5C 57.547,247.124 81.3803,287.291 132.5,311C 180.616,327.512 222.782,318.012 259,282.5C 290.402,245.421 297.402,204.087 280,158.5C 256.726,111.931 218.892,88.9309 166.5,89.5 Z M 125.5,149.5 C 120.404,152.367 118.571,156.7 120,162.5C 125.28,169.819 130.947,170.153 137,163.5C 139.692,153.681 135.859,149.014 125.5,149.5 Z M 218.5,240.5 C 215.66,241.686 213.494,243.686 212,246.5C 211.739,258.705 217.072,262.038 228,256.5C 232.264,246.907 229.097,241.574 218.5,240.5 Z"/></g>
<g><path style="opacity:1" fill="#000000" d="M 121.5,128.5 C 143.941,126.286 156.608,136.286 159.5,158.5C 158.878,173.295 151.544,183.128 137.5,188C 110.43,190.931 97.5966,178.764 99,151.5C 102.684,139.984 110.184,132.317 121.5,128.5 Z M 125.5,149.5 C 120.404,152.367 118.571,156.7 120,162.5C 125.28,169.819 130.947,170.153 137,163.5C 139.692,153.681 135.859,149.014 125.5,149.5 Z"/></g>
<g><path style="opacity:1" fill="#000000" d="M 400.5,136.5 C 411.507,135.673 416.007,140.673 414,151.5C 410.179,157.393 405.012,158.893 398.5,156C 391.472,148.638 392.138,142.138 400.5,136.5 Z"/></g>
<g><path style="opacity:1" fill="#000000" d="M 225.5,140.5 C 236.7,141.199 240.534,146.865 237,157.5C 200.472,194.361 163.639,230.861 126.5,267C 117.759,269.407 112.426,266.241 110.5,257.5C 111.068,254.548 112.234,251.881 114,249.5C 150.139,214.361 185.972,178.861 221.5,143C 223.066,142.392 224.4,141.558 225.5,140.5 Z"/></g>
<g><path style="opacity:1" fill="#000000" d="M 215.5,219.5 C 239.976,219.142 251.809,231.142 251,255.5C 245.856,273.958 233.69,282.124 214.5,280C 196.067,274.219 188.233,261.719 191,242.5C 194.861,230.136 203.028,222.469 215.5,219.5 Z M 218.5,240.5 C 215.66,241.686 213.494,243.686 212,246.5C 211.739,258.705 217.072,262.038 228,256.5C 232.264,246.907 229.097,241.574 218.5,240.5 Z"/></g>
</svg>
