<?xml version="1.0" encoding="UTF-8"?>
<!DOCTYPE svg PUBLIC "-//W3C//DTD SVG 1.1//EN" "http://www.w3.org/Graphics/SVG/1.1/DTD/svg11.dtd">
<svg xmlns="http://www.w3.org/2000/svg" version="1.1" width="512px" height="512px" style="shape-rendering:geometricPrecision; text-rendering:geometricPrecision; image-rendering:optimizeQuality; fill-rule:evenodd; clip-rule:evenodd" xmlns:xlink="http://www.w3.org/1999/xlink">
<g><path style="opacity:1" fill="#000000" d="M 49.5,-0.5 C 77.8333,-0.5 106.167,-0.5 134.5,-0.5C 137.234,0.704964 139.901,2.20496 142.5,4C 149.311,10.5672 156.311,16.9005 163.5,23C 262.5,23.3333 361.5,23.6667 460.5,24C 464.382,25.6793 467.548,28.1793 470,31.5C 471.664,185.753 471.997,340.087 471,494.5C 467.981,502.684 462.481,508.351 454.5,511.5C 321.833,511.5 189.167,511.5 56.5,511.5C 48.5191,508.351 43.0191,502.684 40,494.5C 39.3333,332.833 39.3333,171.167 40,9.5C 42.0223,4.98004 45.189,1.6467 49.5,-0.5 Z M 55.5,15.5 C 79.5023,15.3334 103.502,15.5 127.5,16C 129.246,16.4709 130.913,17.1376 132.5,18C 138.167,23.6667 143.833,29.3333 149.5,35C 153.072,37.6366 157.072,39.3033 161.5,40C 259.499,40.5 357.499,40.6667 455.5,40.5C 455.5,48.1667 455.5,55.8333 455.5,63.5C 322.167,63.5 188.833,63.5 55.5,63.5C 55.5,47.5 55.5,31.5 55.5,15.5 Z M 55.5,79.5 C 188.833,79.5 322.167,79.5 455.5,79.5C 455.995,216.556 455.495,353.556 454,490.5C 452.661,493.094 450.494,494.594 447.5,495C 319.5,495.667 191.5,495.667 63.5,495C 60.5056,494.594 58.339,493.094 57,490.5C 55.505,353.556 55.005,216.556 55.5,79.5 Z M 379.5,395.5 C 389.839,395.334 400.172,395.5 410.5,396C 397.667,408.833 384.833,421.667 372,434.5C 371.333,424.167 371.333,413.833 372,403.5C 372.68,398.989 375.18,396.323 379.5,395.5 Z"/></g>
<g><path style="opacity:1" fill="#000000" d="M 75.5,31.5 C 86.8598,30.71 90.1931,35.5434 85.5,46C 74.9641,49.997 70.4641,46.497 72,35.5C 72.6897,33.6498 73.8564,32.3164 75.5,31.5 Z"/></g>
<g><path style="opacity:1" fill="#000000" d="M 107.5,31.5 C 118.86,30.71 122.193,35.5434 117.5,46C 106.964,49.997 102.464,46.497 104,35.5C 104.69,33.6498 105.856,32.3164 107.5,31.5 Z"/></g>
<g><path style="opacity:1" fill="#000000" d="M 188.5,103.5 C 266.501,103.333 344.501,103.5 422.5,104C 430.667,106.833 436.167,112.333 439,120.5C 439.667,210.833 439.667,301.167 439,391.5C 416.195,415.305 393.028,438.805 369.5,462C 309.249,463.659 248.916,463.992 188.5,463C 181.481,460.649 176.314,456.149 173,449.5C 171.878,441.072 171.378,432.572 171.5,424C 171.833,416.5 172.167,409 172.5,401.5C 175.039,402.115 177.539,402.782 180,403.5C 182.381,402.565 184.881,402.232 187.5,402.5C 187.333,414.838 187.5,427.171 188,439.5C 188.5,444 191,446.5 195.5,447C 248.832,447.5 302.166,447.667 355.5,447.5C 355.333,430.497 355.5,413.497 356,396.5C 358.833,388.333 364.333,382.833 372.5,380C 389.497,379.5 406.497,379.333 423.5,379.5C 423.667,295.499 423.5,211.499 423,127.5C 422.5,123 420,120.5 415.5,120C 342.167,119.333 268.833,119.333 195.5,120C 191,120.5 188.5,123 188,127.5C 187.5,145.164 187.333,162.83 187.5,180.5C 182.167,179.167 176.833,179.167 171.5,180.5C 171.333,160.497 171.5,140.497 172,120.5C 175.019,112.316 180.519,106.649 188.5,103.5 Z M 379.5,395.5 C 375.18,396.323 372.68,398.989 372,403.5C 371.333,413.833 371.333,424.167 372,434.5C 384.833,421.667 397.667,408.833 410.5,396C 400.172,395.5 389.839,395.334 379.5,395.5 Z"/></g>
<g><path style="opacity:1" fill="#000000" d="M 271.5,155.5 C 315.501,155.333 359.501,155.5 403.5,156C 406.516,157.529 407.849,160.029 407.5,163.5C 407.849,166.971 406.516,169.471 403.5,171C 359.5,171.667 315.5,171.667 271.5,171C 268.484,169.471 267.151,166.971 267.5,163.5C 267.282,159.934 268.616,157.268 271.5,155.5 Z"/></g>
<g><path style="opacity:1" fill="#000000" d="M 271.5,187.5 C 315.501,187.333 359.501,187.5 403.5,188C 406.516,189.529 407.849,192.029 407.5,195.5C 407.849,198.971 406.516,201.471 403.5,203C 359.5,203.667 315.5,203.667 271.5,203C 268.484,201.471 267.151,198.971 267.5,195.5C 267.282,191.934 268.616,189.268 271.5,187.5 Z"/></g>
<g><path style="opacity:1" fill="#000000" d="M 165.5,195.5 C 215,191.898 249.834,212.565 270,257.5C 283.754,302.004 272.921,339.171 237.5,369C 219.092,382.691 198.425,388.691 175.5,387C 173.667,386.5 172.5,385.333 172,383.5C 171.071,379.756 171.571,376.256 173.5,373C 196.248,372.2 216.248,364.533 233.5,350C 261.745,319.785 266.245,286.285 247,249.5C 222.246,215.184 189.746,204.684 149.5,218C 122.3,230.198 105.966,251.031 100.5,280.5C 109.71,280.261 113.21,284.594 111,293.5C 106.867,298.634 102.367,303.468 97.5,308C 93.5,310 89.5,310 85.5,308C 81.3333,303.833 77.1667,299.667 73,295.5C 69.0148,285.124 72.5148,280.457 83.5,281.5C 91.4431,234.226 118.776,205.559 165.5,195.5 Z"/></g>
<g><path style="opacity:1" fill="#000000" d="M 271.5,219.5 C 315.501,219.333 359.501,219.5 403.5,220C 406.516,221.529 407.849,224.029 407.5,227.5C 407.849,230.971 406.516,233.471 403.5,235C 360.833,235.667 318.167,235.667 275.5,235C 273.457,231.747 271.29,228.58 269,225.5C 268.034,222.66 268.867,220.66 271.5,219.5 Z"/></g>
<g><path style="opacity:1" fill="#000000" d="M 171.5,247.5 C 174.187,247.336 176.854,247.503 179.5,248C 181.333,248.5 182.5,249.667 183,251.5C 183.5,263.495 183.667,275.495 183.5,287.5C 195.505,287.333 207.505,287.5 219.5,288C 221.333,288.5 222.5,289.667 223,291.5C 223.667,294.167 223.667,296.833 223,299.5C 222.5,301.333 221.333,302.5 219.5,303C 202.742,303.97 186.075,303.637 169.5,302C 168.874,301.25 168.374,300.416 168,299.5C 167.333,283.5 167.333,267.5 168,251.5C 168.69,249.65 169.856,248.316 171.5,247.5 Z"/></g>
<g><path style="opacity:1" fill="#000000" d="M 283.5,251.5 C 323.501,251.333 363.501,251.5 403.5,252C 406.516,253.529 407.849,256.029 407.5,259.5C 407.849,262.971 406.516,265.471 403.5,267C 365.167,267.667 326.833,267.667 288.5,267C 287.065,261.761 285.398,256.594 283.5,251.5 Z"/></g>
<g><path style="opacity:1" fill="#000000" d="M 290.5,283.5 C 328.168,283.333 365.835,283.5 403.5,284C 406.516,285.529 407.849,288.029 407.5,291.5C 407.849,294.971 406.516,297.471 403.5,299C 365.835,299.5 328.168,299.667 290.5,299.5C 290.5,294.167 290.5,288.833 290.5,283.5 Z"/></g>
<g><path style="opacity:1" fill="#000000" d="M 288.5,315.5 C 326.835,315.333 365.168,315.5 403.5,316C 406.516,317.529 407.849,320.029 407.5,323.5C 407.849,326.971 406.516,329.471 403.5,331C 363.496,331.833 323.496,331.667 283.5,330.5C 285.633,325.626 287.3,320.626 288.5,315.5 Z"/></g>
<g><path style="opacity:1" fill="#000000" d="M 275.5,347.5 C 318.168,347.333 360.835,347.5 403.5,348C 406.516,349.529 407.849,352.029 407.5,355.5C 407.849,358.971 406.516,361.471 403.5,363C 359.5,363.667 315.5,363.667 271.5,363C 268.8,362.051 267.967,360.217 269,357.5C 271.426,354.309 273.593,350.975 275.5,347.5 Z"/></g>
</svg>
